<?xml version="1.0" standalone="no"?>
<!DOCTYPE svg PUBLIC "-//W3C//DTD SVG 20010904//EN"
 "http://www.w3.org/TR/2001/REC-SVG-20010904/DTD/svg10.dtd">
<svg version="1.0" xmlns="http://www.w3.org/2000/svg"
 width="1080.000000pt" height="1080.000000pt" viewBox="0 0 1080.000000 1080.000000"
 preserveAspectRatio="xMidYMid meet">

<g transform="translate(0.000000,1080.000000) scale(0.100000,-0.100000)"
fill="#000000" stroke="none">
<path d="M5885 9349 c-136 -17 -260 -78 -329 -162 -43 -52 -62 -95 -71 -162
-11 -71 -29 -102 -97 -167 l-61 -57 5 -79 c6 -111 44 -187 142 -290 75 -78 76
-80 76 -131 0 -83 39 -154 102 -187 75 -39 158 6 177 96 6 27 8 57 4 66 -8 20
21 44 53 44 16 0 24 -8 29 -27 19 -77 84 -133 152 -133 74 0 123 61 123 151 0
119 -90 212 -186 194 -44 -8 -94 -72 -94 -122 0 -29 -3 -33 -27 -33 -16 0 -34
-4 -42 -9 -11 -7 -22 1 -43 30 -34 47 -83 79 -121 79 -30 0 -67 -16 -79 -34
-14 -21 -21 5 -22 82 -1 94 14 118 66 107 17 -4 86 -7 152 -7 126 1 233 19
314 53 24 11 45 19 47 19 1 0 8 -37 15 -82 13 -90 37 -148 72 -172 33 -23 45
-20 95 24 72 63 147 66 183 7 24 -39 25 -60 3 -126 -15 -46 -15 -74 -6 -254 7
-135 16 -215 26 -242 l16 -40 0 43 c2 97 52 256 144 452 99 213 161 416 173
570 7 93 -22 236 -67 328 -44 89 -88 116 -189 116 -85 -1 -139 -18 -214 -68
-64 -42 -116 -57 -157 -46 -17 5 -64 40 -104 78 -92 88 -144 106 -260 91z
m216 -896 c106 -90 81 -273 -38 -273 -39 0 -99 49 -119 97 -20 46 -17 108 6
152 22 44 30 49 82 50 26 1 46 -7 69 -26z m-357 -54 c41 -33 66 -90 66 -155 0
-50 -3 -59 -34 -90 -41 -41 -78 -44 -127 -11 -19 12 -44 42 -56 67 -23 45 -32
117 -13 105 6 -4 10 7 10 26 0 72 92 107 154 58z"/>
<path d="M6020 8345 c-16 -19 -5 -47 17 -43 11 2 18 12 18 27 0 29 -17 37 -35
16z"/>
<path d="M5700 8280 c0 -13 7 -20 20 -20 13 0 20 7 20 20 0 13 -7 20 -20 20
-13 0 -20 -7 -20 -20z"/>
<path d="M6385 8420 c-10 -11 -16 -22 -13 -25 3 -3 11 1 18 10 15 18 51 20 68
3 17 -17 15 -43 -7 -88 -11 -22 -15 -40 -11 -40 15 0 50 67 50 97 0 57 -68 84
-105 43z"/>
<path d="M5880 8208 c0 -18 -12 -60 -26 -93 -14 -33 -28 -69 -31 -79 -8 -24
21 -46 56 -45 25 0 25 1 -6 16 -18 9 -33 20 -33 25 0 5 11 31 25 58 29 58 43
134 26 144 -7 5 -11 -4 -11 -26z"/>
<path d="M5830 7893 c0 -16 48 -33 89 -33 25 0 47 7 62 21 l24 20 -25 -8 c-32
-10 -110 -10 -132 1 -11 5 -18 4 -18 -1z"/>
<path d="M6225 7784 c-33 -14 -70 -30 -82 -35 -24 -9 -29 -37 -17 -98 l6 -31
30 43 c17 23 53 66 81 95 28 28 49 52 47 52 -3 0 -32 -12 -65 -26z"/>
<path d="M5987 7473 c-17 -38 -22 -67 -22 -138 0 -108 18 -147 86 -185 38 -22
60 -26 166 -30 66 -3 119 -2 116 3 -2 4 4 7 14 7 28 0 157 65 209 104 79 61
144 157 144 216 0 16 -4 30 -10 30 -5 0 -10 -13 -10 -29 0 -46 -16 -77 -67
-132 -45 -48 -173 -141 -190 -138 -4 1 -26 -6 -48 -16 -27 -12 -76 -19 -147
-23 -101 -4 -110 -3 -161 21 -65 32 -87 72 -87 155 0 61 23 167 42 189 7 9 7
13 -1 13 -7 0 -22 -21 -34 -47z"/>
<path d="M5750 7230 c0 -5 5 -10 10 -10 6 0 10 5 10 10 0 6 -4 10 -10 10 -5 0
-10 -4 -10 -10z"/>
<path d="M5618 7083 c7 -3 16 -2 19 1 4 3 -2 6 -13 5 -11 0 -14 -3 -6 -6z"/>
<path d="M5686 7025 c-3 -9 0 -15 8 -15 8 0 23 -3 33 -6 17 -5 17 -5 1 9 -10
8 -15 17 -11 20 3 4 -1 7 -9 7 -9 0 -18 -7 -22 -15z"/>
<path d="M6338 7025 c5 -11 7 -26 5 -32 -3 -7 0 -13 5 -13 11 0 25 30 17 38
-3 3 -5 1 -5 -3 0 -5 -7 0 -16 11 -15 19 -15 19 -6 -1z"/>
<path d="M6470 6997 c0 -38 23 -77 34 -58 4 6 13 8 19 4 10 -5 1 8 -32 47 -2
3 -1 -3 2 -13 4 -11 3 -16 -3 -12 -13 8 -13 55 -1 55 5 0 12 -6 14 -12 3 -8 6
-6 6 5 1 11 -6 17 -19 17 -16 0 -20 -7 -20 -33z"/>
<path d="M5590 7010 c0 -5 7 -10 16 -10 8 0 12 5 9 10 -3 6 -10 10 -16 10 -5
0 -9 -4 -9 -10z"/>
<path d="M5661 6994 c0 -11 3 -14 6 -6 3 7 2 16 -1 19 -3 4 -6 -2 -5 -13z"/>
<path d="M6393 6995 c2 -11 9 -19 15 -17 7 1 12 -3 12 -9 0 -5 4 -8 9 -4 5 3
12 -3 16 -14 3 -11 14 -22 23 -24 14 -3 13 -6 -6 -13 -13 -6 -23 -13 -23 -17
1 -4 0 -17 0 -29 -1 -18 -2 -19 -6 -5 -4 15 -7 16 -21 5 -15 -11 -15 -11 -5 3
10 12 10 18 0 29 -10 12 -9 12 4 2 14 -10 18 -9 23 10 3 13 6 26 6 31 0 13
-29 7 -38 -9 -8 -14 -10 -13 -23 2 -13 16 -12 17 6 10 14 -5 17 -4 9 4 -7 7
-19 7 -34 2 l-24 -9 23 -12 c12 -7 20 -15 18 -18 -9 -8 -47 17 -47 31 0 23
-28 14 -33 -11 -3 -19 -1 -22 13 -18 25 8 35 -11 13 -24 -11 -6 -13 -11 -5
-11 7 0 10 -6 7 -12 -3 -7 2 -3 11 10 9 12 20 22 25 22 14 0 10 -26 -5 -40 -8
-6 -16 -21 -18 -32 -2 -12 -9 -23 -16 -26 -14 -4 -12 19 3 31 6 4 4 11 -5 17
-11 7 -17 5 -21 -8 -4 -9 -5 -20 -2 -24 2 -5 -1 -8 -7 -8 -11 0 -10 37 3 56 4
7 0 15 -8 18 -10 3 -15 1 -14 -7 4 -22 -13 -67 -25 -67 -6 0 7 -9 29 -20 22
-11 32 -18 23 -15 -25 6 -23 -20 3 -44 12 -11 19 -25 16 -33 -2 -7 3 -22 12
-32 9 -11 10 -16 4 -12 -8 4 -13 1 -13 -8 0 -9 -6 -16 -14 -16 -8 0 -18 -9
-21 -20 -5 -15 -12 -19 -26 -15 -16 6 -18 3 -10 -17 9 -25 5 -48 -10 -48 -4 0
-6 7 -3 15 5 11 2 13 -12 8 -13 -5 -16 -3 -11 10 7 18 -1 47 -12 47 -12 0 -5
-58 9 -75 7 -8 9 -15 5 -15 -4 0 -14 8 -21 18 -12 16 -13 15 -14 -6 0 -13 -4
-20 -10 -17 -6 4 -8 11 -5 16 4 5 -1 9 -10 9 -9 0 -13 -4 -10 -10 3 -5 -2 -10
-12 -11 -10 0 -28 -2 -40 -3 -13 -2 -21 -1 -18 2 9 9 -16 42 -33 42 -16 -1
-15 -2 1 -11 14 -8 15 -14 7 -24 -9 -11 -3 -16 32 -26 40 -11 41 -12 19 -20
-17 -7 -29 -5 -41 6 -21 19 -31 19 -24 0 4 -8 2 -15 -4 -15 -6 0 -13 6 -15 13
-4 8 -6 8 -6 -2 -1 -10 -8 -8 -25 8 -19 18 -32 22 -51 17 -38 -10 -47 1 -28
32 l17 27 -27 -24 c-15 -14 -27 -29 -27 -34 0 -6 3 -8 6 -4 4 3 13 0 20 -8 8
-7 19 -15 26 -18 7 -2 9 -8 5 -13 -4 -5 -13 -2 -18 6 -9 13 -10 12 -6 -2 3 -9
3 -19 -1 -23 -4 -4 -7 -12 -7 -18 0 -14 -54 -16 -72 -4 -7 5 -17 6 -23 2 -5
-3 -10 -1 -10 5 0 13 62 10 72 -4 3 -5 5 3 5 17 -1 15 -7 27 -12 27 -6 0 -23
10 -37 21 -23 19 -25 24 -12 36 7 8 18 12 23 9 5 -3 11 0 14 7 3 9 -8 13 -39
13 -36 0 -44 -4 -44 -19 0 -10 7 -25 15 -34 8 -8 13 -19 10 -24 -4 -5 5 -9 19
-9 14 0 27 -4 31 -9 3 -6 -5 -8 -19 -5 -14 2 -28 0 -31 -6 -8 -13 -35 -13 -35
0 0 6 6 10 13 10 8 0 14 7 14 15 0 8 -6 15 -14 15 -7 0 -13 12 -14 28 -1 16
-3 20 -6 10 -2 -10 -8 -18 -13 -18 -12 0 0 32 14 42 7 5 4 8 -6 8 -9 0 -20 5
-24 12 -5 8 0 9 14 6 15 -4 25 0 32 10 8 15 9 15 10 1 0 -13 9 -16 41 -13 27
2 47 -3 56 -12 8 -8 20 -11 26 -7 8 5 7 8 -1 11 -10 3 -10 7 0 20 11 13 10 14
-8 4 -25 -13 -35 -7 -27 16 4 13 3 14 -5 3 -8 -11 -11 -11 -16 0 -3 8 -3 3 0
-11 l5 -25 -20 23 c-10 12 -22 22 -25 22 -3 0 -6 -10 -6 -22 0 -18 -2 -20 -10
-8 -5 8 -6 26 -3 40 6 22 5 24 -10 11 -9 -7 -15 -16 -13 -20 6 -10 -17 -26
-44 -29 -20 -2 -22 -1 -10 7 10 7 11 11 2 11 -6 0 -11 3 -11 8 4 25 -3 31 -31
28 -17 -2 -28 -1 -25 2 2 3 0 11 -6 18 -7 8 -7 14 1 19 8 5 8 11 1 19 -17 20
24 58 54 50 16 -4 25 -2 25 6 0 7 8 9 19 5 14 -4 19 -1 17 11 -3 19 -36 41
-36 24 0 -5 8 -10 18 -10 10 -1 5 -6 -13 -14 -26 -11 -32 -10 -42 3 -11 14
-12 14 -13 -1 0 -10 -5 -18 -11 -18 -6 0 -8 7 -5 16 5 13 1 15 -21 10 -18 -4
-23 -3 -14 2 11 8 11 10 0 14 -8 3 -5 7 9 10 12 4 22 2 22 -3 0 -5 14 -9 30
-9 17 0 30 5 30 10 0 6 11 10 25 10 30 0 33 16 5 23 -11 3 -20 1 -20 -5 0 -5
-4 -6 -10 -3 -5 3 -10 1 -10 -4 0 -6 -4 -11 -10 -11 -5 0 -10 7 -10 15 0 8 -8
23 -18 33 -15 15 -20 16 -31 5 -6 -7 -8 -13 -2 -13 5 0 7 -9 4 -20 -3 -11 -9
-17 -14 -14 -5 3 -7 10 -4 15 3 5 -1 6 -10 3 -9 -4 -14 -12 -11 -19 7 -18 -26
-29 -39 -13 -14 18 -45 19 -45 2 0 -8 5 -14 11 -14 6 0 3 -8 -8 -17 -10 -10
-14 -15 -8 -11 17 11 27 -3 14 -19 -6 -7 -8 -13 -5 -13 20 0 -29 -33 -62 -42
-32 -9 -34 -12 -17 -19 28 -11 37 -11 30 1 -3 6 1 7 9 4 9 -3 13 -10 10 -15
-3 -5 -1 -9 4 -9 6 0 12 -7 16 -15 3 -9 0 -15 -9 -15 -8 0 -14 3 -12 8 6 19
-39 16 -47 -4 -5 -12 -1 -14 17 -9 17 4 15 2 -7 -11 -23 -13 -26 -18 -15 -26
11 -8 10 -9 -4 -4 -11 3 -20 0 -23 -9 -3 -8 -26 -22 -51 -31 -34 -13 -41 -19
-29 -26 16 -9 11 -37 -8 -50 -7 -5 -4 -13 9 -23 11 -8 16 -15 10 -14 -26 3
-37 -2 -31 -16 7 -19 -15 -15 -31 5 -11 13 -12 11 -13 -9 0 -13 -3 -21 -7 -18
-3 4 -17 0 -31 -9 -13 -9 -21 -11 -18 -5 12 18 -17 12 -49 -10 -16 -12 -22
-19 -13 -16 14 5 16 0 15 -28 -1 -18 -4 -32 -6 -30 -2 3 -12 0 -22 -6 -15 -7
-17 -6 -13 6 4 8 10 15 15 15 5 0 9 8 9 18 0 10 -3 13 -8 6 -9 -14 -57 -40
-49 -26 4 5 -4 14 -17 20 -20 9 -25 8 -30 -4 -9 -22 -8 -24 12 -24 14 0 15 -2
2 -10 -15 -10 -19 -5 -34 43 -3 10 -11 15 -17 11 -8 -5 -8 -9 1 -14 7 -4 10
-17 7 -29 -5 -21 -4 -22 41 -25 8 -1 18 -9 24 -19 9 -17 8 -18 -14 -6 -12 7
-24 12 -25 11 -2 -1 -6 -1 -10 -1 -5 1 -16 0 -27 -1 -11 -1 -15 3 -12 9 4 6 2
11 -3 11 -6 0 -11 -9 -11 -20 0 -29 -1 -33 -11 -52 -9 -16 -18 -60 -22 -100
-1 -10 -4 -18 -7 -18 -4 0 -7 -7 -7 -16 0 -19 39 -44 168 -110 166 -86 346
-161 357 -149 3 2 -5 14 -18 25 -13 11 -20 23 -17 26 9 9 35 -14 42 -37 9 -28
23 -23 17 6 -2 15 0 25 7 25 7 0 9 -5 5 -11 -3 -6 -1 -15 6 -19 8 -5 15 -19
17 -31 2 -13 7 -27 12 -32 5 -5 8 27 6 72 -1 45 1 84 6 87 4 2 6 11 3 19 -3 7
4 18 15 25 28 14 29 -8 1 -40 -16 -19 -18 -26 -7 -38 10 -13 12 -12 15 11 3
28 26 37 36 15 3 -7 3 -1 2 13 -3 21 0 25 17 24 24 -2 36 -25 13 -25 -21 0
-21 -26 0 -34 8 -3 13 -12 9 -18 -3 -7 0 -6 6 4 12 15 15 15 38 0 25 -16 25
-16 12 1 -13 16 -13 20 -1 27 17 10 33 2 28 -14 -2 -6 6 -21 18 -34 23 -24 29
-7 7 19 -6 8 -7 22 -2 34 5 14 8 15 8 5 1 -9 16 -20 34 -25 26 -8 32 -15 30
-35 -1 -14 0 -18 3 -7 3 10 15 17 29 17 13 0 25 6 28 13 3 9 7 9 20 -2 11 -8
17 -9 17 -3 0 7 7 9 17 5 10 -4 14 -2 10 4 -5 7 0 9 14 6 11 -3 18 -11 15 -19
-3 -7 -1 -16 4 -19 6 -4 10 2 10 12 0 14 2 15 9 4 7 -11 10 -9 16 8 4 13 9 20
12 17 4 -3 12 -1 20 5 7 6 13 9 13 5 0 -3 12 -1 26 4 14 6 23 6 20 1 -4 -5 0
-12 6 -15 7 -3 3 -3 -9 0 -19 4 -23 1 -23 -20 0 -14 5 -26 11 -26 5 0 7 -5 3
-11 -5 -8 -9 -8 -14 1 -8 13 -61 17 -79 6 -6 -4 -8 -12 -5 -18 4 -6 10 -5 16
3 6 10 8 7 6 -11 -2 -14 -13 -34 -25 -46 -13 -12 -20 -24 -16 -27 3 -4 1 -7
-5 -7 -7 0 -12 6 -12 13 0 8 -3 7 -10 -3 -7 -11 -1 -18 23 -28 18 -8 26 -16
20 -19 -9 -3 -10 -10 -3 -24 7 -13 7 -19 0 -19 -5 0 -10 6 -10 14 0 20 -27 28
-34 10 -3 -9 -11 -12 -17 -8 -8 4 -9 3 -5 -5 4 -6 3 -18 -3 -24 -5 -7 -7 -23
-4 -36 4 -15 8 -19 13 -11 5 8 9 7 13 -4 4 -10 1 -16 -8 -16 -8 0 -15 -4 -15
-10 0 -5 7 -7 15 -3 9 3 15 2 14 -3 -5 -29 2 -42 21 -37 11 3 17 10 14 17 -4
6 5 0 18 -14 14 -14 23 -29 20 -35 -3 -5 -7 -4 -10 3 -5 17 -22 15 -22 -3 0
-8 6 -15 13 -15 8 0 7 -3 -3 -10 -17 -11 -30 5 -25 31 3 12 -2 15 -16 12 -10
-3 -19 -12 -19 -19 0 -10 -7 -13 -23 -9 -17 5 -24 2 -24 -8 0 -8 7 -14 16 -13
10 1 15 -6 13 -16 -2 -10 2 -18 8 -18 6 0 8 -4 5 -10 -3 -5 1 -10 9 -10 9 0
16 7 16 15 0 8 5 15 10 15 12 0 13 -23 3 -34 -14 -14 -11 -66 3 -66 8 0 14 -5
14 -11 0 -7 -10 -9 -25 -5 -15 4 -25 2 -25 -4 0 -6 5 -8 10 -5 6 3 13 -2 17
-12 4 -10 13 -23 21 -29 8 -6 12 -16 8 -22 -4 -7 -2 -12 4 -12 6 0 8 -5 4 -11
-3 -6 -15 -9 -25 -6 -11 3 -17 1 -13 -4 3 -5 1 -9 -3 -9 -5 0 -10 -12 -11 -27
-2 -24 -1 -25 15 -11 20 16 43 18 42 3 0 -5 8 -12 18 -16 14 -6 15 -8 2 -8
-19 -1 -58 -41 -39 -41 7 0 10 -7 6 -15 -3 -8 -2 -15 3 -15 15 0 20 13 11 30
-7 13 -5 16 10 15 21 -1 53 -25 45 -33 -3 -3 -12 3 -21 14 -13 16 -15 17 -10
2 3 -10 1 -18 -3 -18 -5 0 -12 -7 -15 -16 -5 -12 -2 -15 9 -10 11 4 19 -3 25
-20 13 -33 13 -34 -4 -34 -8 0 -17 -11 -20 -25 -4 -14 -15 -34 -26 -45 -22
-22 -13 -28 9 -7 12 10 13 8 7 -8 -6 -19 -5 -19 8 -1 9 11 20 15 28 10 7 -4 5
2 -6 14 -16 19 -17 23 -3 36 17 18 32 9 16 -10 -7 -9 -5 -14 10 -19 12 -3 21
-10 21 -15 0 -9 -30 -24 -42 -22 -11 3 -10 -26 1 -32 5 -4 11 -1 13 6 3 7 7 2
10 -10 4 -12 2 -22 -4 -22 -7 0 -7 -4 0 -13 7 -8 7 -18 2 -27 -7 -10 -10 -11
-10 -2 0 6 -5 12 -12 12 -6 0 -3 -9 7 -20 11 -12 25 -18 34 -15 12 5 13 3 5
-5 -6 -6 -20 -12 -31 -13 -18 -1 -20 -6 -15 -42 7 -55 12 -57 12 -6 0 40 2 43
23 37 12 -3 28 -6 36 -6 20 0 4 -15 -16 -15 -9 0 -18 -6 -21 -14 -3 -8 0 -11
6 -7 5 3 12 -1 15 -8 4 -10 -2 -16 -16 -19 l-22 -4 23 -2 c12 0 22 -6 22 -12
0 -6 -6 -9 -14 -6 -9 4 -12 -2 -11 -16 4 -36 4 -37 19 -37 17 0 30 -35 20 -51
-4 -7 -3 -9 4 -5 6 3 13 2 17 -4 3 -5 3 -10 -2 -11 -39 -3 -71 -19 -40 -19 9
0 17 -5 17 -11 0 -5 5 -7 10 -4 6 4 8 11 5 16 -4 5 4 9 17 9 13 0 86 42 163
93 77 51 214 139 305 196 210 133 780 511 808 535 1 2 -9 38 -23 82 -14 43
-35 113 -46 154 -12 41 -34 114 -50 163 -16 48 -29 89 -29 92 0 3 20 5 44 5
68 0 245 37 317 66 69 28 169 84 169 95 0 12 -44 -3 -53 -18 -4 -7 -17 -13
-29 -13 -17 0 -18 3 -8 15 7 8 15 13 19 11 4 -3 7 4 7 15 0 10 -8 22 -18 25
-10 3 -18 12 -18 20 0 8 -4 13 -9 10 -5 -4 -12 0 -14 6 -3 8 -6 5 -6 -5 -1
-21 -23 -18 -29 4 -3 11 -2 11 7 -1 9 -12 11 -10 11 11 0 16 -7 29 -20 35 -14
7 -17 13 -10 24 8 12 12 11 30 -8 11 -12 24 -22 27 -22 3 0 -1 8 -10 18 -10
10 -14 22 -10 26 5 5 -12 6 -36 2 -46 -6 -46 -3 -4 42 10 10 10 19 3 33 -6 11
-8 25 -4 32 4 6 -2 4 -13 -6 -14 -12 -23 -15 -28 -7 -3 5 -11 7 -17 4 -6 -4
-9 -1 -6 7 3 8 11 14 18 14 7 0 15 7 17 15 3 9 1 11 -4 5 -14 -17 -83 -4 -83
17 0 7 6 6 15 -2 12 -10 16 -7 25 16 7 19 8 30 0 38 -9 9 -15 -3 -11 -26 0 -5
-4 -8 -10 -8 -5 0 -10 8 -9 18 3 30 -12 63 -26 58 -8 -3 -11 0 -8 9 4 10 -1
12 -18 9 -21 -4 -21 -3 -3 5 11 4 23 7 28 4 4 -2 7 2 7 11 0 17 -42 15 -65 -4
-9 -8 -15 -8 -15 -2 0 6 9 14 20 17 11 3 20 13 20 21 0 9 -5 12 -11 8 -7 -4
-10 -1 -7 7 3 8 10 13 16 12 6 -2 14 7 18 19 7 22 -16 48 -44 48 -8 0 -12 9
-10 24 2 16 -5 30 -20 43 l-24 19 26 14 c31 16 34 30 6 30 -13 0 -20 7 -20 19
0 22 -17 37 -28 26 -4 -4 -1 -10 6 -12 19 -7 14 -33 -5 -32 -10 0 -13 3 -6 6
10 3 10 9 0 26 -7 12 -16 25 -22 29 -5 5 4 5 21 2 22 -4 33 -2 37 9 4 11 0 13
-15 9 -14 -3 -19 -1 -14 6 3 6 1 14 -5 18 -7 4 -9 3 -5 -4 11 -18 -16 -26 -30
-8 -7 10 -15 17 -18 17 -3 -1 -9 0 -13 0 -5 1 -16 0 -27 -1 -10 -1 -23 4 -27
12 -7 10 -9 9 -9 -4 0 -10 -7 -18 -16 -18 -8 0 -13 -4 -10 -9 11 -17 -34 -20
-45 -3 -9 15 -10 14 -6 -4 3 -13 -3 -27 -14 -35 -12 -9 -15 -17 -9 -24 7 -8 3
-18 -10 -30 -11 -10 -20 -13 -20 -7 0 7 -5 12 -11 12 -7 0 -10 -14 -7 -35 2
-22 -1 -36 -9 -39 -13 -5 -17 5 -14 37 1 9 -4 17 -11 17 -7 0 1 8 17 19 21 12
32 15 37 7 5 -6 8 -3 8 10 0 27 -24 59 -38 50 -15 -9 -16 -26 -1 -26 5 0 7 5
4 10 -3 6 -1 10 4 10 18 0 12 -30 -6 -37 -24 -9 -42 -34 -36 -50 3 -7 0 -13
-7 -13 -9 0 -10 -3 -1 -14 9 -10 8 -15 -3 -19 -10 -4 -13 -1 -9 9 3 7 0 14 -6
14 -6 0 -11 5 -11 11 0 5 4 8 8 5 5 -3 9 8 10 25 0 16 -4 27 -9 23 -5 -3 -7
-9 -4 -14 3 -4 -2 -13 -10 -20 -9 -7 -13 -21 -10 -31 7 -22 -20 -26 -45 -8
-13 10 -13 10 0 6 10 -3 20 5 27 19 6 13 8 23 4 22 -19 -2 -24 3 -11 12 8 5
10 10 3 10 -6 0 -20 -15 -32 -32 -11 -18 -23 -32 -25 -31 -12 5 -35 -10 -30
-19 3 -5 -3 -4 -15 4 l-21 13 22 7 c15 5 8 6 -19 4 -28 -2 -40 0 -36 7 4 6 0
8 -10 4 -11 -4 -18 1 -23 15 -5 16 -8 17 -14 7 -5 -7 -6 -17 -4 -21 3 -4 0 -8
-5 -8 -6 0 -11 -4 -11 -10 0 -5 7 -10 15 -10 8 0 15 -7 15 -15 0 -13 -3 -13
-20 -3 -22 14 -35 38 -19 38 5 0 9 6 8 13 -3 23 1 36 17 51 8 9 14 26 12 38
l-3 23 -20 -22 c-20 -24 -59 -31 -70 -13 -10 16 -25 12 -25 -7 0 -15 2 -16 10
-3 5 8 10 11 10 5 0 -5 -4 -16 -9 -23 -6 -11 -10 -10 -16 5 -5 10 -7 24 -6 31
2 13 -25 12 -47 -2 -9 -5 -20 -2 -30 8 -15 15 -15 16 0 16 9 0 19 -6 21 -12 3
-8 6 -6 6 4 1 10 7 15 14 13 8 -4 12 5 13 25 1 20 -4 30 -14 30 -8 0 -12 6 -9
13 3 7 -4 19 -14 25 -15 10 -19 9 -19 -1 0 -7 6 -19 12 -25 10 -10 8 -14 -9
-18 -12 -3 -20 -11 -19 -17 2 -7 1 -9 -1 -5 -2 4 -10 6 -16 4 -7 -1 -9 -1 -4
1 4 3 7 13 7 23 0 10 6 20 13 23 9 3 9 7 -2 20 -7 9 -17 14 -22 12 -12 -8 -47
30 -55 60 -6 26 -28 33 -40 13 -5 -8 -10 -6 -16 8 -8 18 -8 18 -5 -1z m100
-126 c-15 -15 -29 -26 -31 -24 -3 2 4 12 13 22 11 11 14 18 6 21 -19 6 -2 20
19 15 19 -5 18 -7 -7 -34z m-842 -32 c-13 -13 -26 -3 -16 12 3 6 11 8 17 5 6
-4 6 -10 -1 -17z m738 14 c7 -5 12 -13 10 -18 -2 -6 -13 -2 -23 8 -20 19 -12
26 13 10z m38 -53 c-3 -8 -6 -5 -6 6 -1 11 2 17 5 13 3 -3 4 -12 1 -19z m57 6
c9 -24 7 -44 -5 -44 -6 0 -8 9 -4 20 4 11 3 20 -2 19 -17 -3 -24 1 -18 11 9
15 22 12 29 -6z m807 9 c0 -5 2 -19 5 -33 l4 -25 -15 25 c-17 30 -18 40 -5 40
6 0 10 -3 11 -7z m-38 -20 c-3 -7 -9 -11 -13 -8 -5 3 -11 1 -15 -5 -3 -5 -12
-10 -18 -10 -8 0 -7 3 2 9 7 5 11 13 8 17 -3 5 5 9 18 9 14 0 21 -5 18 -12z
m-890 -7 c4 -10 0 -12 -15 -8 -15 4 -17 7 -6 13 17 11 15 11 21 -5z m-815 -32
c0 -17 -3 -22 -8 -13 -5 6 -6 18 -3 26 8 19 11 16 11 -13z m832 -9 c-7 -8 -16
-12 -21 -10 -4 3 -1 14 9 23 20 20 30 9 12 -13z m67 3 c-3 -7 -5 -2 -5 12 0
14 2 19 5 13 2 -7 2 -19 0 -25z m700 15 c-4 -3 -2 -12 5 -20 8 -11 7 -12 -6
-7 -9 3 -16 9 -16 13 0 9 11 21 18 21 3 0 2 -3 -1 -7z m97 -8 c-4 -8 -11 -12
-16 -9 -6 4 -5 10 3 15 19 12 19 11 13 -6z m-917 -15 c11 -16 10 -18 -1 -14
-15 6 -30 34 -18 34 4 0 13 -9 19 -20z m-717 0 c0 -5 -5 -10 -11 -10 -5 0 -7
5 -4 10 3 6 8 10 11 10 2 0 4 -4 4 -10z m1007 -11 c3 -32 21 -48 33 -29 5 8
10 11 10 5 0 -5 -9 -23 -20 -40 -14 -21 -20 -25 -20 -12 0 9 5 17 12 17 6 0 2
8 -9 18 -11 9 -18 23 -16 30 3 8 -1 10 -13 5 -16 -6 -17 -5 -4 10 20 22 25 21
27 -4z m97 -11 c-15 -29 -30 -39 -21 -13 4 8 2 17 -3 20 -4 3 -11 -1 -13 -7
-3 -7 -6 -4 -6 7 -1 17 5 21 28 20 28 0 29 0 15 -27z m-306 15 c-19 -5 -25
-23 -8 -23 6 0 10 -4 10 -9 0 -6 -9 -9 -19 -8 -11 0 -18 4 -17 7 2 3 6 13 9
23 4 9 14 16 24 16 17 -1 17 -2 1 -6z m112 -19 c0 -8 -4 -14 -9 -14 -6 0 -9 9
-8 19 1 22 17 18 17 -5z m-50 12 c0 -3 -4 -8 -10 -11 -5 -3 -10 -1 -10 4 0 6
5 11 10 11 6 0 10 -2 10 -4z m91 -17 c8 -15 8 -19 0 -15 -6 4 -11 2 -11 -3 0
-6 -7 -11 -16 -11 -14 0 -14 1 0 16 9 8 14 20 11 25 -4 5 -4 9 -1 9 3 0 10
-10 17 -21z m599 -15 c0 -16 -26 -19 -35 -4 -4 6 -4 18 -1 27 5 12 9 13 21 3
8 -7 15 -19 15 -26z m52 18 c-9 -3 -10 -8 -2 -17 8 -9 5 -14 -10 -18 -21 -5
-29 16 -10 28 6 4 8 11 5 16 -4 5 2 6 11 2 12 -4 14 -8 6 -11z m-1666 -9 c-4
-4 -19 -9 -34 -10 -21 -3 -24 -1 -12 7 17 11 57 14 46 3z m934 -7 c0 -3 -4 -8
-10 -11 -5 -3 -10 -1 -10 4 0 6 5 11 10 11 6 0 10 -2 10 -4z m-913 -28 c-3 -8
-6 -5 -6 6 -1 11 2 17 5 13 3 -3 4 -12 1 -19z m855 -8 c18 -11 27 -20 20 -20
-7 0 -10 -4 -7 -10 3 -5 -1 -10 -9 -10 -9 0 -15 3 -15 8 4 21 -3 34 -23 42
-13 5 -17 9 -11 9 7 1 27 -8 45 -19z m686 -10 c-7 -10 -14 -18 -15 -16 -6 6 9
36 18 36 5 0 4 -9 -3 -20z m62 16 c0 -2 -7 -7 -16 -10 -8 -3 -12 -2 -9 4 6 10
25 14 25 6z m-1620 -10 c0 -3 -4 -8 -10 -11 -5 -3 -10 -1 -10 4 0 6 5 11 10
11 6 0 10 -2 10 -4z m1144 -11 c-4 -9 0 -15 9 -15 11 0 14 -9 12 -36 -4 -40
-14 -58 -16 -28 -1 10 -1 24 0 30 1 7 -6 14 -14 18 -13 4 -14 10 -5 26 12 23
22 27 14 5z m103 -17 c-3 -7 -5 -2 -5 12 0 14 2 19 5 13 2 -7 2 -19 0 -25z
m103 12 c0 -5 -2 -10 -4 -10 -3 0 -8 5 -11 10 -3 6 -1 10 4 10 6 0 11 -4 11
-10z m230 0 c0 -5 -5 -10 -11 -10 -5 0 -7 5 -4 10 3 6 8 10 11 10 2 0 4 -4 4
-10z m-95 -10 c3 -5 -1 -10 -10 -10 -9 0 -13 5 -10 10 3 6 8 10 10 10 2 0 7
-4 10 -10z m-1398 -15 c0 -8 -9 -15 -21 -15 -20 0 -20 0 0 15 10 8 19 15 20
15 0 0 1 -7 1 -15z m1363 11 c0 -2 -7 -7 -16 -10 -8 -3 -12 -2 -9 4 6 10 25
14 25 6z m-100 -18 c0 -4 -5 -8 -11 -8 -5 0 -7 -4 -4 -10 3 -5 4 -10 1 -10 -3
0 -10 8 -15 18 -7 14 -6 18 10 18 10 0 19 -4 19 -8z m-544 -13 c-1 -8 -6 -18
-11 -22 -4 -4 -5 -3 -2 3 4 7 -2 14 -14 17 -16 4 -18 3 -9 -7 7 -10 6 -17 -4
-25 -10 -8 -16 -9 -21 -1 -3 5 -1 10 6 10 9 0 9 3 0 14 -13 16 -6 20 34 24 15
1 22 -3 21 -13z m116 -15 c-2 -16 -8 -30 -13 -30 -5 0 -6 7 -4 15 3 8 7 22 10
30 8 25 12 17 7 -15z m358 15 c0 -1 -6 -7 -13 -13 -10 -8 -13 -6 -13 7 0 11 6
17 13 14 7 -3 13 -6 13 -8z m-426 -7 c-3 -4 -9 -8 -15 -8 -5 0 -9 4 -9 8 0 5
7 9 15 9 8 0 12 -4 9 -9z m383 -3 c0 -8 -4 -15 -9 -15 -10 0 -11 14 -1 23 9
10 10 9 10 -8z m78 -5 c3 -5 -3 -10 -15 -10 -12 0 -18 5 -15 10 3 6 10 10 15
10 5 0 12 -4 15 -10z m-1170 -9 c3 -5 1 -12 -5 -16 -5 -3 -10 1 -10 9 0 18 6
21 15 7z m910 -1 c4 -6 11 -7 17 -4 7 4 8 2 4 -5 -6 -9 -12 -9 -24 1 -10 7
-19 14 -21 15 -2 2 1 3 7 3 6 0 14 -5 17 -10z m560 0 c3 -5 1 -10 -4 -10 -6 0
-11 5 -11 10 0 6 2 10 4 10 3 0 8 -4 11 -10z m287 -4 c7 4 8 2 4 -5 -9 -13
-26 -5 -25 12 0 9 2 8 6 -1 2 -6 10 -9 15 -6z m-1058 -12 c3 -8 2 -12 -4 -9
-6 3 -10 10 -10 16 0 14 7 11 14 -7z m-125 -30 c-11 -14 -10 -15 7 -12 14 2
19 -3 19 -19 0 -11 4 -25 8 -29 4 -5 5 -1 2 8 -4 11 -2 16 8 14 22 -3 47 -26
47 -43 0 -17 -24 -43 -39 -43 -6 0 -11 -5 -11 -12 0 -7 -5 -5 -12 4 -7 9 -21
18 -31 20 -16 3 -16 4 3 16 16 10 20 10 18 0 -2 -7 3 -13 10 -12 36 3 42 5 42
13 0 13 -52 21 -71 10 -11 -6 -21 -4 -29 6 -14 17 -4 38 16 31 8 -3 11 0 7 10
-6 17 -20 18 -26 2 -3 -8 -6 -5 -6 5 -1 11 9 27 22 37 26 21 36 18 16 -6z m85
10 c3 -8 2 -12 -4 -9 -6 3 -10 -1 -10 -10 0 -9 5 -13 10 -10 6 3 10 -1 10 -9
0 -10 -6 -13 -15 -10 -8 4 -15 10 -15 16 0 5 -4 7 -9 4 -5 -3 -11 1 -15 9 -4
10 1 15 14 15 11 0 20 5 20 10 0 15 7 12 14 -6z m-989 -3 c3 -5 1 -12 -5 -16
-5 -3 -10 1 -10 9 0 18 6 21 15 7z m320 -1 c3 -5 1 -10 -4 -10 -6 0 -11 5 -11
10 0 6 2 10 4 10 3 0 8 -4 11 -10z m709 -6 c18 -7 23 -64 5 -64 -6 0 -8 9 -4
20 3 11 2 20 -3 20 -6 0 -12 7 -16 15 -6 17 -4 18 18 9z m56 -9 c-6 -8 -9 -18
-6 -24 4 -5 1 -21 -6 -36 -16 -36 6 -51 35 -22 18 18 21 18 29 3 5 -9 16 -16
25 -16 15 0 14 -2 -2 -13 -11 -9 -15 -19 -10 -27 5 -9 4 -11 -3 -6 -15 9 -15
1 -2 -25 7 -13 7 -19 0 -19 -5 0 -10 4 -10 9 0 4 -12 6 -27 4 l-28 -4 25 15
c14 8 20 15 13 16 -7 0 -10 7 -7 15 3 8 11 13 16 12 6 -1 13 4 15 11 3 7 -4
12 -17 12 -13 0 -24 -8 -27 -20 -3 -11 -9 -20 -14 -20 -5 0 -9 -8 -9 -17 0
-14 -3 -14 -12 -5 -10 10 -10 15 1 21 11 7 11 12 0 32 -7 13 -12 27 -12 30 1
4 4 19 7 34 5 25 23 55 33 55 3 0 0 -7 -7 -15z m253 0 c-3 -9 -8 -14 -10 -11
-3 3 -2 9 2 15 9 16 15 13 8 -4z m197 -6 c0 -6 -4 -7 -10 -4 -5 3 -10 11 -10
16 0 6 5 7 10 4 6 -3 10 -11 10 -16z m-743 -16 c-3 -3 -11 -2 -17 2 -9 6 -9
10 1 16 14 8 27 -7 16 -18z m53 8 c0 -6 -4 -13 -10 -16 -5 -3 -10 1 -10 9 0 9
5 16 10 16 6 0 10 -4 10 -9z m-244 -27 c-5 -17 -3 -23 4 -19 5 3 10 1 10 -5 0
-6 -11 -15 -25 -20 -15 -6 -23 -15 -19 -23 3 -8 -2 -14 -10 -14 -12 0 -13 5
-5 19 6 11 16 21 24 24 8 3 11 12 8 20 -6 15 2 44 13 44 3 0 3 -12 0 -26z
m217 -13 c-3 -12 -2 -13 4 -3 7 9 14 7 31 -8 12 -12 22 -24 22 -27 0 -4 -5 -2
-12 5 -15 15 -72 16 -63 2 4 -6 16 -8 28 -5 16 5 18 4 8 -3 -16 -11 -6 -32 15
-32 19 0 18 -16 -1 -24 -8 -3 -17 -4 -19 -3 -5 4 -36 -25 -36 -34 0 -5 7 -6
15 -3 20 8 19 -1 -2 -26 -18 -20 -39 -28 -28 -10 3 5 1 18 -4 29 -8 14 -7 20
3 24 9 4 12 14 9 25 -5 21 12 39 22 22 3 -5 1 -10 -4 -10 -6 0 -11 -4 -11 -10
0 -8 19 -8 48 -1 1 1 -5 9 -15 19 -22 23 -57 37 -47 19 4 -6 -2 -4 -12 6 -18
17 -18 19 -1 28 9 6 14 15 11 21 -4 6 -2 8 4 4 6 -3 14 3 17 15 5 16 9 18 15
9 5 -7 6 -20 3 -29z m343 24 c-3 -10 0 -12 12 -8 13 5 14 3 6 -6 -9 -10 -16
-10 -33 1 -27 16 -27 23 0 25 14 1 19 -3 15 -12z m130 3 c4 -7 3 -8 -4 -4 -7
4 -12 3 -12 -3 0 -5 6 -12 13 -15 6 -3 2 -3 -11 0 -18 4 -25 1 -29 -15 -3 -12
-12 -21 -19 -21 -26 0 -14 -30 14 -36 46 -10 53 -14 47 -24 -6 -9 16 -17 65
-22 l25 -3 -24 -22 c-28 -26 -41 -23 -20 4 11 15 11 16 -1 5 -12 -10 -19 -6
-43 19 -33 37 -44 33 -29 -10 6 -17 9 -31 6 -31 -4 0 -18 31 -24 55 -2 6 -17
20 -33 33 -17 12 -25 22 -18 22 7 0 10 4 7 9 -8 12 3 41 15 41 4 0 6 -8 3 -17
-3 -10 7 -4 23 14 31 36 38 39 49 21z m32 -24 c-1 -9 -9 -19 -16 -22 -11 -3
-12 0 -4 14 5 11 7 26 4 34 -3 11 -2 12 8 4 6 -7 10 -20 8 -30z m-458 12 c0
-3 -4 -8 -10 -11 -5 -3 -10 -1 -10 4 0 6 5 11 10 11 6 0 10 -2 10 -4z m261
-14 c-7 -2 -18 1 -23 6 -8 8 -4 9 13 5 13 -4 18 -8 10 -11z m257 -2 c7 -11 9
-20 4 -20 -4 0 -13 9 -20 20 -7 11 -9 20 -4 20 4 0 13 -9 20 -20z m107 11 c3
-6 -4 -15 -15 -21 -19 -10 -20 -10 -8 9 15 24 15 24 23 12z m-825 -11 c3 -1 9
-2 13 -1 5 1 6 -3 2 -8 -3 -6 -12 -8 -20 -4 -8 3 -15 1 -15 -5 0 -5 15 -13 33
-17 17 -4 26 -9 20 -12 -7 -2 -13 -9 -13 -14 0 -4 6 -6 13 -3 7 2 17 -8 24
-27 10 -26 10 -30 -3 -25 -7 3 -14 1 -14 -4 0 -6 -8 -10 -17 -10 -15 0 -13 4
7 20 23 17 24 19 6 26 -12 5 -22 2 -28 -10 -16 -28 -88 -6 -87 28 0 20 1 20 9
1 5 -11 9 -16 9 -11 1 5 7 4 14 -1 19 -15 49 -24 42 -13 -3 6 -13 10 -20 10
-9 0 -12 6 -9 15 4 8 13 15 21 15 8 0 12 -4 8 -9 -3 -5 -1 -12 4 -15 5 -4 8 2
6 11 -2 13 -10 17 -30 16 -20 -2 -25 2 -21 13 3 9 6 22 6 29 0 11 18 13 40 5z
m67 -24 c-13 -13 -16 -13 -20 -1 -4 8 1 15 11 18 24 5 27 0 9 -17z m610 -8
c-3 -8 -6 -5 -6 6 -1 11 2 17 5 13 3 -3 4 -12 1 -19z m-967 3 c0 -6 -4 -12 -8
-15 -5 -3 -9 1 -9 9 0 8 4 15 9 15 4 0 8 -4 8 -9z m1040 -31 c0 -11 -2 -20 -4
-20 -2 0 -6 9 -9 20 -3 11 -1 20 4 20 5 0 9 -9 9 -20z m-93 -10 c-2 -24 -12
-26 -21 -4 -3 8 -2 12 4 9 6 -3 10 -1 10 4 0 6 2 11 4 11 3 0 4 -9 3 -20z
m-302 -4 c7 3 16 1 20 -5 3 -7 0 -8 -9 -5 -11 4 -16 0 -16 -10 0 -9 -7 -16
-15 -16 -10 0 -15 10 -15 27 0 20 3 24 11 16 6 -6 17 -9 24 -7z m178 -5 c3
-14 1 -18 -9 -14 -8 3 -14 11 -14 19 0 21 17 17 23 -5z m192 -14 c14 -3 10 -5
-10 -6 -25 -1 -31 3 -32 20 -2 18 0 19 10 6 7 -8 21 -17 32 -20z m-860 12 c11
-17 2 -18 -19 -3 -17 12 -17 14 -4 14 9 0 20 -5 23 -11z m-719 -24 c-3 -8 -1
-15 4 -15 6 0 10 -5 10 -11 0 -8 -5 -8 -15 1 -17 15 -20 40 -4 40 6 0 9 -7 5
-15z m1164 -5 c18 -16 20 -20 7 -20 -10 0 -17 5 -17 11 0 5 -4 8 -8 5 -5 -3
-9 1 -9 9 0 19 -1 19 27 -5z m489 -5 c6 3 11 1 11 -4 0 -6 -4 -11 -9 -11 -5 0
-23 -3 -40 -6 -25 -5 -31 -3 -31 11 0 11 5 15 14 12 11 -4 13 -1 9 11 -6 15
-4 15 15 -1 11 -11 26 -16 31 -12z m631 15 c0 -5 -2 -10 -4 -10 -3 0 -8 5 -11
10 -3 6 -1 10 4 10 6 0 11 -4 11 -10z m-1582 -12 c-3 -7 -10 -13 -15 -13 -6 0
-15 -4 -20 -9 -5 -5 -3 -6 5 -2 6 4 12 2 12 -3 0 -8 7 -7 19 1 11 7 17 16 15
20 -3 4 0 8 5 8 14 0 14 -40 0 -60 -8 -12 -9 -9 -4 10 6 25 6 25 -11 5 -11
-14 -18 -16 -21 -7 -3 6 -11 12 -19 12 -19 0 -18 20 4 36 22 17 35 18 30 2z
m392 3 c0 -5 -9 -13 -21 -16 -11 -4 -18 -13 -15 -20 2 -7 -4 -15 -15 -18 -13
-3 -17 -1 -12 6 4 7 6 21 4 31 -2 15 2 18 18 13 12 -3 21 -1 21 4 0 5 5 9 10
9 6 0 10 -4 10 -9z m280 -15 c0 -14 -4 -27 -9 -30 -5 -4 -8 2 -6 11 1 10 -2
24 -8 31 -7 8 -5 12 7 12 10 0 16 -9 16 -24z m-565 4 c3 -5 1 -10 -4 -10 -6 0
-11 5 -11 10 0 6 2 10 4 10 3 0 8 -4 11 -10z m430 -11 c-4 -5 2 -9 13 -9 28 0
82 -20 82 -31 0 -5 -7 -9 -15 -9 -8 0 -15 4 -15 8 0 4 -9 8 -20 8 -14 0 -20
-7 -20 -23 0 -13 -4 -23 -10 -23 -5 0 -10 -5 -10 -11 0 -5 4 -7 10 -4 6 3 7
-1 4 -9 -3 -9 -10 -16 -15 -16 -9 0 -10 2 -14 36 -1 12 -5 26 -9 32 -3 6 -1
14 5 18 8 5 9 3 4 -6 -5 -8 -3 -11 5 -8 38 12 11 42 -29 31 -17 -4 -19 -9 -11
-24 8 -14 7 -17 -3 -14 -21 9 -19 45 3 45 10 0 21 7 24 16 3 8 10 12 16 9 6
-4 8 -11 5 -16z m185 4 c0 -7 -7 -13 -15 -13 -8 0 -15 6 -15 13 0 8 7 14 15
14 8 0 15 -6 15 -14z m-285 -5 c28 -12 29 -16 15 -38 -7 -11 -10 -11 -10 -2 0
8 -5 10 -12 6 -8 -5 -9 -2 -5 9 4 11 1 17 -8 17 -8 0 -15 5 -15 10 0 13 3 13
35 -2z m585 3 c0 -5 -13 -16 -30 -25 -31 -15 -36 -12 -21 13 5 8 16 11 25 8 9
-4 16 -2 16 3 0 6 2 10 5 10 3 0 5 -4 5 -9z m590 -11 c0 -5 -5 -10 -11 -10 -5
0 -7 5 -4 10 3 6 8 10 11 10 2 0 4 -4 4 -10z m-1680 -4 c0 -3 -4 -8 -10 -11
-5 -3 -10 -1 -10 4 0 6 5 11 10 11 6 0 10 -2 10 -4z m310 -6 c0 -5 -2 -10 -4
-10 -3 0 -8 5 -11 10 -3 6 -1 10 4 10 6 0 11 -4 11 -10z m651 -1 c13 -6 18
-17 15 -26 -9 -23 3 -34 25 -23 11 6 19 7 19 1 0 -5 -7 -11 -15 -15 -9 -3 -15
-18 -15 -35 0 -16 -4 -32 -9 -35 -5 -4 -7 2 -4 12 5 20 -37 49 -55 38 -6 -3
-12 -1 -14 5 -3 9 -10 9 -27 0 -12 -7 -25 -10 -29 -7 -3 3 0 6 6 6 7 0 12 4
12 10 0 5 -6 7 -14 4 -8 -3 -16 2 -19 13 -5 16 -6 16 -5 -2 1 -39 -2 -46 -24
-55 -18 -7 -19 -9 -5 -9 9 -1 17 -5 17 -11 0 -5 5 -10 10 -10 6 0 9 6 8 13 -2
6 5 11 14 11 10 -1 15 2 12 7 -3 5 0 9 5 9 6 0 11 -8 11 -18 0 -22 9 -33 22
-26 5 3 4 12 -3 20 -7 9 -8 14 -3 13 5 -1 17 1 27 6 10 4 22 4 27 -1 13 -13
20 -73 9 -80 -5 -3 -9 0 -9 6 0 6 -5 8 -11 4 -8 -4 -8 -9 0 -17 14 -14 14 -37
0 -37 -6 0 -9 7 -5 15 3 8 1 15 -4 15 -6 0 -10 -5 -10 -12 0 -6 -7 -3 -15 8
-12 16 -16 17 -24 4 -8 -12 -13 -12 -30 4 -18 16 -21 17 -21 3 0 -8 6 -18 13
-20 6 -3 3 -6 -8 -6 -29 -1 -30 34 -2 47 22 10 21 10 -5 17 -16 4 -28 12 -28
18 0 6 -3 7 -6 4 -4 -3 -15 -2 -25 4 -15 8 -21 6 -26 -8 -4 -10 -11 -21 -16
-25 -6 -4 -4 -12 5 -22 19 -18 28 -11 28 21 0 20 3 21 18 12 9 -6 17 -22 17
-35 0 -26 -10 -32 -18 -11 -3 7 -6 5 -6 -5 -1 -10 5 -18 13 -18 7 0 16 -9 19
-20 3 -11 1 -20 -5 -20 -5 0 -6 -4 -3 -10 3 -5 1 -10 -6 -10 -6 0 -9 8 -6 20
3 11 4 20 2 20 -2 0 -12 3 -22 7 -16 6 -16 5 -4 -10 12 -15 12 -17 -3 -11 -19
7 -21 30 -3 37 7 3 6 6 -5 6 -9 1 -20 -4 -23 -9 -4 -6 -10 -8 -15 -5 -7 5 -48
-10 -92 -33 -5 -2 -8 3 -8 10 0 8 10 14 21 15 26 2 51 23 28 23 -8 0 -20 -5
-26 -11 -7 -7 -12 -3 -17 16 -4 14 -10 23 -15 20 -5 -2 -16 6 -25 20 -19 29
-20 35 -5 35 5 0 7 -4 4 -10 -3 -5 1 -10 9 -10 9 0 16 -4 16 -10 0 -5 7 -10
15 -10 10 0 14 8 11 23 -2 14 -9 21 -20 19 -24 -4 -20 15 5 21 31 8 48 -2 44
-26 -4 -20 -3 -21 9 -5 7 10 17 14 21 10 5 -4 5 1 2 11 -8 22 19 23 31 1 5
-10 14 -14 21 -9 9 5 7 12 -6 28 -10 11 -12 17 -5 13 7 -4 12 -1 12 8 0 9 5
16 11 16 5 0 7 -4 4 -10 -3 -6 1 -7 10 -4 14 6 14 8 -2 19 -10 8 -14 17 -10
21 4 5 12 3 16 -4 4 -7 15 -10 24 -6 9 3 15 9 13 13 -2 3 17 7 42 9 26 1 53 9
62 17 17 18 25 18 51 4z m679 -9 c-6 -11 -12 -20 -14 -20 -2 0 -2 9 1 20 3 11
9 20 15 20 5 0 4 -9 -2 -20z m-1410 -10 c0 -18 -3 -19 -20 -10 -23 12 -25 8
-8 -23 10 -20 10 -21 -5 -8 -9 7 -26 11 -37 8 -30 -8 -24 10 10 28 17 9 30 12
30 8 0 -4 5 -2 12 5 16 16 18 15 18 -8z m47 5 c0 -8 -3 -13 -5 -10 -3 3 -12
-1 -21 -7 -10 -8 -9 -4 3 10 23 26 23 26 23 7z m183 0 c0 -8 -4 -15 -10 -15
-5 0 -10 7 -10 15 0 8 5 15 10 15 6 0 10 -7 10 -15z m560 0 c0 -8 -4 -15 -10
-15 -5 0 -7 7 -4 15 4 8 8 15 10 15 2 0 4 -7 4 -15z m690 -5 c0 -5 -8 -10 -17
-10 -15 0 -16 2 -3 10 19 12 20 12 20 0z m-977 -17 c-9 -24 -25 -34 -39 -23
-7 7 -15 2 -24 -15 -7 -14 -18 -25 -23 -25 -5 0 -4 7 3 15 9 10 9 15 1 15 -6
0 -11 5 -11 11 0 5 5 7 11 3 6 -3 14 -2 18 3 3 6 20 15 36 21 17 6 31 11 32
11 1 1 -1 -7 -4 -16z m339 -1 c-18 -6 -14 -22 6 -22 15 0 15 -2 2 -11 -12 -9
-10 -10 8 -6 18 4 22 2 18 -10 -3 -8 -6 -19 -6 -24 0 -13 -14 -11 -36 7 -18
14 -18 15 4 4 15 -7 22 -7 22 0 0 5 -4 10 -9 10 -5 0 -16 3 -25 6 -12 4 -16 0
-16 -15 0 -12 6 -21 14 -21 8 0 17 -4 20 -9 7 -11 -45 -1 -61 12 -18 13 -16
30 2 23 10 -4 15 1 15 14 0 11 5 20 12 20 6 0 8 3 5 7 -10 10 14 34 26 26 8
-5 7 -8 -1 -11z m-1784 -23 c-3 -8 -7 -3 -11 10 -4 17 -3 21 5 13 5 -5 8 -16
6 -23z m1135 -9 c-2 -2 -8 2 -13 10 -6 8 -10 11 -10 7 0 -5 -5 -5 -12 -1 -8 5
-6 10 8 14 13 5 21 2 25 -9 4 -9 5 -18 2 -21z m-1093 26 c0 -3 -4 -8 -10 -11
-5 -3 -10 -1 -10 4 0 6 5 11 10 11 6 0 10 -2 10 -4z m-130 -34 c-5 -2 -17 2
-27 8 -17 11 -17 11 0 6 10 -3 17 0 17 7 0 7 4 6 10 -3 6 -9 6 -16 0 -18z
m1100 18 c0 -5 -5 -10 -11 -10 -5 0 -7 5 -4 10 3 6 8 10 11 10 2 0 4 -4 4 -10z
m1484 -5 c19 -14 19 -15 1 -35 -10 -11 -23 -20 -29 -20 -6 0 -3 5 7 11 22 13
23 41 0 32 -12 -5 -14 -3 -8 7 6 10 4 12 -8 7 -9 -3 -19 -2 -22 3 -10 15 38
11 59 -5z m-1424 -11 c0 -2 -7 -4 -15 -4 -8 0 -15 4 -15 10 0 5 7 7 15 4 8 -4
15 -8 15 -10z m135 -8 c19 -8 34 -12 34 -8 -3 19 3 22 17 8 8 -9 12 -20 9 -26
-10 -16 -36 -12 -51 8 -9 11 -14 13 -15 5 -1 -7 -2 -18 -3 -23 0 -6 -7 -15
-15 -19 -7 -5 -10 -14 -7 -20 4 -6 3 -11 -2 -11 -6 0 -12 7 -16 15 -3 8 -1 15
4 15 6 0 10 5 10 11 0 5 -4 7 -10 4 -5 -3 -10 -1 -10 4 0 10 14 15 33 12 4 0
7 4 7 9 0 9 -14 14 -32 11 -5 0 -8 4 -8 9 0 14 15 13 55 -4z m-272 -3 c-7 -2
-19 -2 -25 0 -7 3 -2 5 12 5 14 0 19 -2 13 -5z m-963 -35 c10 -21 10 -21 -3
-5 -13 16 -15 16 -21 2 -3 -9 -10 -14 -15 -11 -5 3 -14 -1 -21 -9 -14 -16 -57
-2 -57 19 0 11 5 11 25 0 21 -10 27 -9 43 7 25 25 36 24 49 -3z m1155 -8 c3
-5 1 -10 -4 -10 -6 0 -11 5 -11 10 0 6 2 10 4 10 3 0 8 -4 11 -10z m629 -19
c3 -5 -1 -11 -9 -15 -9 -3 -15 0 -15 9 0 16 16 20 24 6z m71 -1 c3 -5 1 -10
-4 -10 -6 0 -11 5 -11 10 0 6 2 10 4 10 3 0 8 -4 11 -10z m-1928 -64 c-3 -7 1
-25 8 -39 18 -35 9 -40 -22 -11 -14 13 -23 27 -20 31 4 3 7 1 7 -6 0 -7 4 -10
9 -6 12 7 5 49 -9 53 -6 2 -8 8 -4 13 8 13 37 -19 31 -35z m61 12 c-1 -18 2
-42 6 -53 8 -20 7 -20 -8 -1 -9 11 -16 27 -16 36 0 9 -6 22 -12 29 -9 10 -9
12 -1 7 6 -3 14 -2 18 4 11 18 15 11 13 -22z m556 16 c3 -8 2 -12 -4 -9 -6 3
-10 10 -10 16 0 14 7 11 14 -7z m631 -3 c-3 -6 -11 -11 -17 -11 -6 0 -6 6 2
15 14 17 26 13 15 -4z m1140 -1 c3 -5 1 -10 -4 -10 -6 0 -11 5 -11 10 0 6 2
10 4 10 3 0 8 -4 11 -10z m-972 -13 c4 3 7 -1 7 -10 0 -20 -26 -12 -34 10 -5
12 -4 13 7 5 8 -7 17 -9 20 -5z m463 -2 c-3 -9 0 -15 10 -15 12 0 12 -2 2 -14
-8 -8 -17 -10 -24 -5 -5 4 -20 6 -32 2 -29 -7 -20 20 11 35 31 15 40 14 33 -3z
m-1854 -17 c-7 -7 -12 -8 -12 -2 0 14 12 26 19 19 2 -3 -1 -11 -7 -17z m1288
1 c0 -14 -17 -10 -23 5 -4 10 -1 13 9 9 7 -3 14 -9 14 -14z m52 -4 c-2 -14 -8
-25 -13 -25 -16 0 -9 -18 9 -23 10 -3 6 -5 -10 -6 -16 0 -28 4 -28 10 0 5 -5
7 -12 3 -7 -4 -8 -3 -4 5 4 6 12 9 17 6 5 -4 12 2 16 12 6 17 23 43 28 43 1 0
0 -11 -3 -25z m1258 -5 c0 -5 -2 -10 -4 -10 -3 0 -8 5 -11 10 -3 6 -1 10 4 10
6 0 11 -4 11 -10z m-2079 -37 c-12 -20 -14 -14 -5 12 4 9 9 14 11 11 3 -2 0
-13 -6 -23z m869 6 c0 -5 -4 -9 -10 -9 -5 0 -10 7 -10 16 0 8 5 12 10 9 6 -3
10 -10 10 -16z m263 4 c-6 -17 -5 -17 14 0 21 19 41 8 27 -14 -5 -8 -9 -8 -14
1 -5 8 -9 4 -13 -10 -4 -16 -2 -20 9 -16 9 3 12 1 9 -4 -3 -6 -1 -10 5 -10 7
0 14 9 17 20 3 11 9 17 14 14 5 -3 5 -14 -1 -25 -10 -18 -6 -23 13 -20 5 1 6
-3 2 -9 -6 -10 -55 -3 -65 9 -3 4 -16 12 -30 19 -14 7 -17 10 -7 8 9 -3 17 -1
17 4 0 6 -9 10 -20 10 -11 0 -20 -4 -20 -10 0 -5 -6 -10 -12 -10 -7 0 1 13 17
29 35 34 47 38 38 14z m82 -3 c3 -6 -1 -7 -9 -4 -18 7 -21 14 -7 14 6 0 13 -4
16 -10z m893 -15 c-3 -3 -9 2 -12 12 -6 14 -5 15 5 6 7 -7 10 -15 7 -18z m59
-1 c0 -8 -6 -13 -14 -10 -12 5 -18 -11 -14 -42 2 -10 -18 -11 -46 -3 -2 1 6
10 17 21 11 11 20 29 20 39 0 14 5 18 18 14 10 -2 19 -11 19 -19z m-1244 -4
c-3 -11 -7 -20 -9 -20 -2 0 -4 9 -4 20 0 11 4 20 9 20 5 0 7 -9 4 -20z m74 -3
c6 2 15 -1 19 -8 5 -8 3 -9 -5 -5 -7 5 -21 0 -32 -10 -10 -9 -19 -13 -19 -8 0
5 -4 3 -9 -5 -7 -10 -4 -19 7 -28 14 -11 13 -12 -10 -2 -20 9 -25 16 -18 24 5
7 7 15 3 18 -3 4 6 7 21 7 24 0 26 2 16 23 -9 19 -9 20 2 6 7 -9 18 -14 25
-12z m283 7 c0 -14 -3 -14 -15 -4 -8 7 -15 14 -15 16 0 2 7 4 15 4 8 0 15 -7
15 -16z m-1185 -12 c-3 -3 -11 0 -18 7 -9 10 -8 11 6 5 10 -3 15 -9 12 -12z
m807 -17 c3 -14 1 -25 -4 -25 -5 0 -6 -5 -2 -12 4 -6 3 -8 -4 -4 -5 3 -13 0
-15 -6 -4 -9 -6 -10 -6 -1 -1 6 4 15 9 18 15 9 12 25 -5 25 -8 0 -15 5 -15 11
0 6 7 9 14 6 11 -4 13 -1 9 10 -4 10 -2 14 4 10 6 -4 13 -18 15 -32z m-1386
-2 c-2 -2 -11 0 -20 3 -14 5 -15 9 -5 15 12 7 34 -10 25 -18z m1334 13 c0 -3
-4 -8 -10 -11 -5 -3 -10 -1 -10 4 0 6 5 11 10 11 6 0 10 -2 10 -4z m-819 -28
c11 -20 10 -21 -3 -11 -8 7 -18 10 -21 6 -4 -3 -7 -2 -7 4 0 9 10 23 16 23 2
0 9 -10 15 -22z m509 18 c0 -2 -8 -10 -17 -17 -16 -13 -17 -12 -4 4 13 16 21
21 21 13z m750 -16 c0 -5 -4 -10 -10 -10 -5 0 -10 5 -10 10 0 6 5 10 10 10 6
0 10 -4 10 -10z m-1179 -23 c-10 -9 -11 -8 -5 6 3 10 9 15 12 12 3 -3 0 -11
-7 -18z m96 -2 c0 -8 -4 -12 -9 -9 -4 3 -8 0 -8 -5 0 -6 -7 -11 -15 -11 -12 0
-12 3 3 19 21 24 29 25 29 6z m460 9 c-3 -3 -12 -4 -19 -1 -8 3 -5 6 6 6 11 1
17 -2 13 -5z m423 -4 c0 -5 -7 -7 -15 -4 -8 4 -15 8 -15 10 0 2 7 4 15 4 8 0
15 -4 15 -10z m617 -12 c-3 -8 -6 -5 -6 6 -1 11 2 17 5 13 3 -3 4 -12 1 -19z
m-847 2 c0 -5 -5 -10 -11 -10 -5 0 -7 5 -4 10 3 6 8 10 11 10 2 0 4 -4 4 -10z
m190 0 c0 -5 -7 -10 -16 -10 -8 0 -12 5 -9 10 3 6 10 10 16 10 5 0 9 -4 9 -10z
m230 0 c0 -5 -5 -10 -11 -10 -5 0 -7 5 -4 10 3 6 8 10 11 10 2 0 4 -4 4 -10z
m-162 -14 c19 -1 20 -3 7 -12 -8 -6 -14 -13 -12 -15 1 -2 -3 1 -9 8 -8 9 -13
10 -22 1 -9 -9 -15 -9 -23 -1 -16 16 -1 36 20 27 9 -4 26 -8 39 -8z m65 0 c4
-10 1 -13 -8 -9 -8 3 -12 9 -9 14 7 12 11 11 17 -5z m57 10 c0 -3 -4 -8 -10
-11 -5 -3 -10 -1 -10 4 0 6 5 11 10 11 6 0 10 -2 10 -4z m-1505 -16 c-3 -5
-12 -10 -18 -10 -7 0 -6 4 3 10 19 12 23 12 15 0z m500 0 c3 -5 1 -10 -4 -10
-6 0 -11 5 -11 10 0 6 2 10 4 10 3 0 8 -4 11 -10z m86 -7 c13 -17 13 -17 -6
-3 -11 8 -22 16 -24 17 -2 2 0 3 6 3 6 0 17 -8 24 -17z m622 4 c-2 -4 -13 -5
-23 -2 -11 4 -20 -1 -24 -11 -4 -9 -9 -14 -13 -11 -11 12 19 37 42 35 13 -1
21 -6 18 -11z m67 3 c0 -5 -4 -10 -10 -10 -5 0 -10 5 -10 10 0 6 5 10 10 10 6
0 10 -4 10 -10z m-480 -10 c0 -5 -4 -10 -10 -10 -5 0 -10 5 -10 10 0 6 5 10
10 10 6 0 10 -4 10 -10z m80 -16 c0 -2 -11 -4 -25 -4 -14 0 -25 4 -25 9 0 4
11 6 25 3 14 -2 25 -6 25 -8z m-305 -21 c-11 -7 -24 -13 -29 -13 -6 0 -5 4 3
9 7 5 11 13 7 19 -4 6 2 8 15 5 21 -6 21 -7 4 -20z m145 12 c-7 -9 -15 -13
-17 -11 -7 7 7 26 19 26 6 0 6 -6 -2 -15z m540 5 c0 -5 -2 -10 -4 -10 -3 0 -8
5 -11 10 -3 6 -1 10 4 10 6 0 11 -4 11 -10z m777 -12 c-3 -8 -6 -5 -6 6 -1 11
2 17 5 13 3 -3 4 -12 1 -19z m168 12 c-3 -5 -14 -10 -23 -9 -14 0 -13 2 3 9
27 11 27 11 20 0z m-120 -10 c3 -5 -1 -10 -10 -10 -9 0 -13 5 -10 10 3 6 8 10
10 10 2 0 7 -4 10 -10z m-1885 -10 c0 -5 -10 -10 -22 -10 -19 0 -20 2 -8 10
19 13 30 13 30 0z m1290 -5 c11 -13 10 -14 -4 -9 -9 3 -16 10 -16 15 0 13 6
11 20 -6z m-610 -25 c0 -5 -4 -10 -10 -10 -5 0 -10 5 -10 10 0 6 5 10 10 10 6
0 10 -4 10 -10z m595 -30 c3 -5 1 -10 -4 -10 -6 0 -11 5 -11 10 0 6 2 10 4 10
3 0 8 -4 11 -10z m103 -10 c-7 -10 -14 -18 -15 -16 -6 6 9 36 18 36 5 0 4 -9
-3 -20z m-803 -21 c-5 -16 -4 -19 5 -14 9 5 11 4 6 -3 -5 -9 -13 -9 -27 -2
-24 13 -25 27 -1 33 9 3 18 5 20 6 2 0 0 -9 -3 -20z m-85 -157 c23 15 33 7 24
-16 -4 -9 -12 -15 -20 -12 -13 5 -16 -34 -3 -44 4 -3 0 -11 -9 -19 -13 -12
-14 -12 -10 0 3 8 -4 31 -14 53 -16 31 -17 40 -6 47 8 6 14 3 16 -6 3 -11 7
-12 22 -3z m90 -98 c0 -2 -7 -4 -15 -4 -8 0 -15 4 -15 10 0 5 7 7 15 4 8 -4
15 -8 15 -10z m-59 -147 c-10 -9 -11 -8 -5 6 3 10 9 15 12 12 3 -3 0 -11 -7
-18z m49 -7 c0 -5 -2 -10 -4 -10 -3 0 -8 5 -11 10 -3 6 -1 10 4 10 6 0 11 -4
11 -10z m-40 -70 c0 -5 -5 -10 -11 -10 -5 0 -7 5 -4 10 3 6 8 10 11 10 2 0 4
-4 4 -10z m4 -46 c5 -14 4 -15 -9 -4 -17 14 -19 20 -6 20 5 0 12 -7 15 -16z
m-3 -67 c-10 -9 -11 -8 -5 6 3 10 9 15 12 12 3 -3 0 -11 -7 -18z m-24 -3 c-3
-3 -12 -4 -19 -1 -8 3 -5 6 6 6 11 1 17 -2 13 -5z m83 -164 c0 -5 -2 -10 -4
-10 -3 0 -8 5 -11 10 -3 6 -1 10 4 10 6 0 11 -4 11 -10z m28 -65 c12 -14 18
-25 13 -25 -5 0 -16 11 -25 25 -9 14 -15 25 -13 25 2 0 13 -11 25 -25z m11
-117 c-9 -16 -14 -19 -17 -9 -2 7 2 17 9 22 20 13 21 11 8 -13z m21 -157 c0
-6 -4 -12 -8 -15 -5 -3 -9 1 -9 9 0 8 4 15 9 15 4 0 8 -4 8 -9z m-19 -69 c-7
-2 -18 1 -23 6 -8 8 -4 9 13 5 13 -4 18 -8 10 -11z m59 -1 c0 -6 -4 -12 -8
-15 -5 -3 -9 1 -9 9 0 8 4 15 9 15 4 0 8 -4 8 -9z"/>
<path d="M7130 6700 c0 -5 5 -10 11 -10 5 0 7 5 4 10 -3 6 -8 10 -11 10 -2 0
-4 -4 -4 -10z"/>
<path d="M6740 6302 c0 -15 28 -23 36 -9 4 7 4 9 -1 5 -4 -4 -14 -3 -22 3 -8
7 -13 8 -13 1z"/>
<path d="M6713 6285 c-7 -8 -22 -12 -33 -10 -11 2 -20 0 -20 -6 0 -5 13 -9 28
-9 15 0 32 -3 38 -8 5 -4 8 -5 7 -3 -2 2 3 11 10 19 8 11 8 14 0 9 -6 -4 -13
-1 -15 7 -2 12 -5 12 -15 1z"/>
<path d="M6600 6251 c0 -5 6 -11 13 -14 8 -3 14 1 14 9 0 8 -6 14 -14 14 -7 0
-13 -4 -13 -9z"/>
<path d="M6760 6240 c0 -5 4 -10 9 -10 6 0 13 5 16 10 3 6 -1 10 -9 10 -9 0
-16 -4 -16 -10z"/>
<path d="M6560 6210 c8 -5 20 -10 25 -10 6 0 3 5 -5 10 -8 5 -19 10 -25 10 -5
0 -3 -5 5 -10z"/>
<path d="M6730 6192 c0 -7 5 -12 12 -12 9 0 9 -3 0 -12 -16 -16 -15 -29 2 -22
16 6 15 29 -2 46 -9 9 -12 9 -12 0z"/>
<path d="M6489 6163 c0 -5 -2 -18 -3 -30 -2 -13 2 -19 7 -16 7 4 8 -1 3 -13
-5 -14 -4 -16 4 -8 8 8 9 18 2 30 -5 11 -7 25 -5 32 3 6 2 12 -1 12 -3 0 -6
-3 -7 -7z"/>
<path d="M6672 6140 c0 -14 2 -19 5 -12 2 6 2 18 0 25 -3 6 -5 1 -5 -13z"/>
<path d="M6447 6135 c-8 -20 -4 -29 11 -24 5 2 6 13 2 23 -6 19 -7 19 -13 1z"/>
<path d="M6520 6104 c0 -8 5 -12 10 -9 6 4 8 11 5 16 -9 14 -15 11 -15 -7z"/>
<path d="M5568 6983 c7 -3 16 -2 19 1 4 3 -2 6 -13 5 -11 0 -14 -3 -6 -6z"/>
<path d="M5698 6983 c7 -3 16 -2 19 1 4 3 -2 6 -13 5 -11 0 -14 -3 -6 -6z"/>
<path d="M5555 6960 c-4 -6 -11 -7 -17 -4 -7 4 -8 2 -4 -4 7 -12 36 -5 36 9 0
12 -7 11 -15 -1z"/>
<path d="M5677 6956 c-4 -10 -5 -21 -2 -24 9 -9 17 6 13 25 -3 17 -4 17 -11
-1z"/>
<path d="M5733 6963 c-24 -5 -32 -33 -10 -33 8 0 7 -3 -3 -9 -8 -6 -18 -7 -22
-5 -4 3 -8 0 -8 -6 0 -7 7 -9 16 -6 9 3 21 3 27 -1 7 -4 2 -10 -13 -14 -23 -7
-24 -7 -3 -8 14 -1 21 -6 17 -14 -3 -8 2 -14 11 -14 8 0 15 6 15 14 0 7 -4 13
-8 13 -14 0 -12 44 4 67 8 13 11 22 7 22 -5 -1 -18 -4 -30 -6z"/>
<path d="M6115 6960 c-3 -5 -1 -10 4 -10 6 0 11 5 11 10 0 6 -2 10 -4 10 -3 0
-8 -4 -11 -10z"/>
<path d="M5644 6940 c0 -11 4 -20 8 -20 4 0 8 9 8 20 0 11 -4 20 -8 20 -4 0
-8 -9 -8 -20z"/>
<path d="M6557 6929 c7 -7 15 -10 18 -7 3 3 -2 9 -12 12 -14 6 -15 5 -6 -5z"/>
<path d="M6635 6930 c-3 -5 -1 -10 4 -10 6 0 11 5 11 10 0 6 -2 10 -4 10 -3 0
-8 -4 -11 -10z"/>
<path d="M5494 6906 c-10 -21 -8 -26 12 -37 13 -6 21 -15 19 -19 -6 -9 53 -5
63 4 4 5 -2 7 -13 6 -35 -4 -46 0 -39 12 5 7 2 9 -9 5 -13 -5 -15 0 -12 24 4
35 -6 38 -21 5z"/>
<path d="M5590 6920 c0 -5 10 -10 23 -10 18 0 19 2 7 10 -19 13 -30 13 -30 0z"/>
<path d="M5554 6911 c4 -6 3 -11 -3 -11 -6 0 -8 -6 -5 -13 7 -19 50 -19 65 1
11 14 11 15 -1 5 -16 -15 -34 -17 -25 -4 3 6 -4 15 -16 21 -15 8 -19 9 -15 1z"/>
<path d="M5668 6914 c-5 -4 -8 -16 -8 -28 0 -14 3 -17 11 -9 6 6 9 19 7 28 -1
9 -6 13 -10 9z"/>
<path d="M6636 6897 c3 -10 9 -15 12 -12 3 3 0 11 -7 18 -10 9 -11 8 -5 -6z"/>
<path d="M6195 6891 c-3 -6 -10 -9 -15 -6 -15 9 -22 -14 -10 -32 9 -15 10 -14
4 6 -3 13 -2 21 3 18 11 -7 40 10 31 18 -3 4 -9 1 -13 -4z"/>
<path d="M6700 6885 c0 -8 4 -15 10 -15 5 0 7 7 4 15 -4 8 -8 15 -10 15 -2 0
-4 -7 -4 -15z"/>
<path d="M7085 6880 c-3 -5 -1 -10 4 -10 6 0 11 5 11 10 0 6 -2 10 -4 10 -3 0
-8 -4 -11 -10z"/>
<path d="M7270 6870 c-6 -11 -8 -20 -6 -20 3 0 10 9 16 20 6 11 8 20 6 20 -3
0 -10 -9 -16 -20z"/>
<path d="M5790 6861 c0 -5 6 -14 14 -20 12 -10 13 -8 9 8 -5 21 -23 30 -23 12z"/>
<path d="M7135 6860 c-3 -6 1 -7 9 -4 18 7 21 14 7 14 -6 0 -13 -4 -16 -10z"/>
<path d="M7165 6850 c-3 -5 -1 -10 4 -10 6 0 11 5 11 10 0 6 -2 10 -4 10 -3 0
-8 -4 -11 -10z"/>
<path d="M6126 6836 c3 -9 11 -16 16 -16 13 0 5 23 -10 28 -7 2 -10 -2 -6 -12z"/>
<path d="M6620 6830 c-8 -5 -11 -12 -8 -16 10 -9 38 3 38 16 0 12 -10 13 -30
0z"/>
<path d="M6900 6830 c0 -5 5 -10 10 -10 6 0 10 5 10 10 0 6 -4 10 -10 10 -5 0
-10 -4 -10 -10z"/>
<path d="M5766 6823 c-13 -13 -5 -21 19 -19 14 0 25 2 25 3 0 7 -38 21 -44 16z"/>
<path d="M5950 6819 c0 -5 5 -7 10 -4 6 3 10 8 10 11 0 2 -4 4 -10 4 -5 0 -10
-5 -10 -11z"/>
<path d="M6050 6826 c0 -2 7 -9 15 -16 9 -7 15 -8 15 -2 0 5 -7 12 -15 16 -8
3 -15 4 -15 2z"/>
<path d="M6096 6810 c3 -14 11 -31 16 -37 12 -14 28 -8 27 10 0 7 -3 6 -6 -2
-4 -10 -12 -4 -25 20 -14 26 -17 28 -12 9z"/>
<path d="M6203 6818 c-19 -25 -24 -38 -14 -38 6 0 11 7 11 15 0 8 6 15 14 15
8 0 18 5 21 10 9 15 -21 12 -32 -2z"/>
<path d="M7160 6809 c0 -5 5 -7 10 -4 6 3 10 8 10 11 0 2 -4 4 -10 4 -5 0 -10
-5 -10 -11z"/>
<path d="M6650 6796 c0 -2 7 -7 16 -10 8 -3 12 -2 9 4 -6 10 -25 14 -25 6z"/>
<path d="M6695 6789 c-4 -6 -4 -13 -1 -16 3 -4 6 -1 6 6 0 7 5 9 10 6 6 -3 10
-1 10 4 0 14 -17 14 -25 0z"/>
<path d="M5360 6780 c0 -5 5 -10 11 -10 5 0 7 5 4 10 -3 6 -8 10 -11 10 -2 0
-4 -4 -4 -10z"/>
<path d="M5790 6786 c0 -2 9 -6 20 -9 11 -3 20 -1 20 4 0 5 -9 9 -20 9 -11 0
-20 -2 -20 -4z"/>
<path d="M5885 6779 c-4 -6 -5 -12 -2 -15 2 -3 7 2 10 11 7 17 1 20 -8 4z"/>
<path d="M6160 6783 c0 -6 8 -17 18 -24 16 -13 16 -13 2 6 -8 11 -16 22 -17
24 -2 2 -3 0 -3 -6z"/>
<path d="M5394 6772 c3 -6 -2 -13 -11 -15 -17 -4 -17 -5 0 -6 9 0 17 -8 17
-16 0 -13 2 -14 14 -3 12 11 12 13 0 16 -8 2 -12 7 -9 12 3 5 0 12 -6 16 -7 4
-9 3 -5 -4z"/>
<path d="M6834 6765 c-4 -8 -11 -12 -17 -8 -6 3 -7 1 -3 -5 10 -16 14 -15 26
8 6 11 8 20 5 20 -3 0 -8 -7 -11 -15z"/>
<path d="M5766 6745 c-5 -19 -3 -31 3 -33 6 -2 9 -8 5 -13 -6 -10 -34 14 -34
30 0 6 -5 11 -11 11 -5 0 -7 -4 -4 -10 9 -14 -8 -12 -24 3 -11 10 -12 8 -6
-10 4 -15 2 -23 -6 -23 -8 0 -8 -4 1 -15 11 -13 10 -14 -4 -9 -22 9 -20 -9 4
-23 21 -14 29 -7 24 20 -2 15 3 18 34 15 32 -3 37 0 37 18 0 11 6 28 13 36 9
11 10 18 2 23 -5 3 -10 -2 -11 -12 0 -16 -1 -16 -8 2 -7 17 -9 16 -15 -10z"/>
<path d="M6910 6750 c-6 -11 -8 -20 -6 -20 3 0 10 9 16 20 6 11 8 20 6 20 -3
0 -10 -9 -16 -20z"/>
<path d="M6065 6750 c-4 -6 -11 -8 -16 -5 -5 4 -9 1 -9 -4 0 -15 11 -13 34 4
11 8 15 15 9 15 -7 0 -15 -5 -18 -10z"/>
<path d="M6210 6750 c0 -6 13 -13 29 -16 29 -6 29 -6 9 -26 -11 -11 -17 -23
-13 -26 3 -4 10 -1 14 7 6 10 10 8 16 -6 5 -10 8 -27 7 -38 -1 -17 0 -18 5 -2
3 11 11 16 19 13 20 -8 17 4 -7 25 -13 11 -19 25 -15 34 3 10 -1 18 -12 21 -9
3 -25 10 -34 15 -12 6 -18 6 -18 -1z"/>
<path d="M5641 6726 c-9 -10 -9 -16 -1 -21 8 -5 8 -11 -1 -21 -9 -11 -8 -14 5
-14 18 0 36 37 29 58 -7 16 -18 15 -32 -2z"/>
<path d="M5815 6730 c-4 -6 3 -10 14 -10 25 0 27 6 6 13 -8 4 -17 2 -20 -3z"/>
<path d="M5939 6723 c-13 -16 -12 -17 4 -4 9 7 17 15 17 17 0 8 -8 3 -21 -13z"/>
<path d="M6155 6732 c-2 -3 0 -13 6 -23 7 -14 6 -17 -4 -13 -8 3 -20 -3 -28
-12 -12 -16 -12 -17 3 -11 11 4 17 2 15 -5 -1 -6 3 -12 9 -15 7 -2 11 4 10 14
0 11 5 17 17 17 9 -1 17 1 17 4 0 2 -8 11 -17 19 -17 13 -16 14 5 10 14 -3 22
-1 19 6 -3 10 -43 18 -52 9z"/>
<path d="M6796 6725 c-9 -26 -7 -32 5 -12 6 10 9 21 6 23 -2 3 -7 -2 -11 -11z"/>
<path d="M6844 6727 c-11 -13 -8 -37 6 -37 4 0 8 11 8 25 0 14 -1 25 -2 25 0
-1 -6 -6 -12 -13z"/>
<path d="M5450 6720 c-13 -8 -12 -10 3 -10 9 0 17 5 17 10 0 12 -1 12 -20 0z"/>
<path d="M5996 6698 c0 -15 4 -30 7 -33 4 -3 5 -2 3 1 -2 3 -1 18 4 33 5 19 4
28 -4 28 -6 0 -11 -13 -10 -29z"/>
<path d="M7440 6720 c-9 -6 -10 -10 -3 -10 6 0 15 5 18 10 8 12 4 12 -15 0z"/>
<path d="M6096 6695 c-3 -8 -2 -15 3 -15 5 0 14 7 21 15 10 12 10 15 -3 15 -8
0 -17 -7 -21 -15z"/>
<path d="M6810 6700 c0 -5 5 -10 11 -10 5 0 7 5 4 10 -3 6 -8 10 -11 10 -2 0
-4 -4 -4 -10z"/>
<path d="M5878 6693 c7 -3 16 -2 19 1 4 3 -2 6 -13 5 -11 0 -14 -3 -6 -6z"/>
<path d="M5795 6680 c-3 -6 1 -7 9 -4 18 7 21 14 7 14 -6 0 -13 -4 -16 -10z"/>
<path d="M5930 6675 c0 -13 -12 -19 -32 -16 -4 0 -7 -10 -6 -23 2 -17 7 -22
21 -18 14 4 16 7 5 13 -10 7 -8 12 10 24 23 17 29 35 12 35 -5 0 -10 -7 -10
-15z"/>
<path d="M6057 6683 c-3 -5 0 -21 7 -38 8 -19 15 -25 20 -17 4 7 2 12 -5 12
-7 0 -9 10 -7 25 5 23 -5 34 -15 18z"/>
<path d="M7395 6681 c-3 -6 4 -9 15 -8 11 1 20 5 20 9 0 11 -28 10 -35 -1z"/>
<path d="M5390 6662 c0 -4 4 -13 9 -20 7 -11 9 -11 14 1 3 9 -1 18 -9 21 -8 3
-14 2 -14 -2z"/>
<path d="M5727 6651 c-4 -17 -3 -21 5 -13 5 5 8 16 6 23 -3 8 -7 3 -11 -10z"/>
<path d="M6176 6647 c-4 -18 -4 -18 15 -1 23 21 23 21 5 21 -8 0 -17 -9 -20
-20z"/>
<path d="M6232 6650 c0 -14 2 -19 5 -12 2 6 2 18 0 25 -3 6 -5 1 -5 -13z"/>
<path d="M5372 6640 c0 -14 2 -19 5 -12 2 6 2 18 0 25 -3 6 -5 1 -5 -13z"/>
<path d="M5950 6649 c0 -5 5 -7 10 -4 6 3 10 8 10 11 0 2 -4 4 -10 4 -5 0 -10
-5 -10 -11z"/>
<path d="M6000 6630 c-7 -14 -7 -26 -1 -39 6 -10 8 -21 5 -24 -10 -9 7 -68 17
-61 5 3 7 10 4 15 -4 5 -1 9 5 9 6 0 4 8 -6 17 -16 17 -16 18 3 23 18 4 19 7
7 18 -11 10 -14 10 -15 0 0 -7 -4 -4 -8 7 -5 11 -4 28 1 38 5 9 6 17 4 17 -3
0 -10 -9 -16 -20z"/>
<path d="M6115 6640 c-3 -5 -3 -15 1 -22 5 -8 2 -9 -9 -5 -9 3 -19 1 -23 -5
-4 -7 -3 -8 4 -4 9 5 11 -3 8 -28 -5 -39 2 -50 24 -35 8 5 11 9 7 9 -4 0 -2
10 4 23 11 19 10 20 -3 10 -8 -7 -18 -10 -21 -6 -10 10 13 32 28 27 7 -3 16
-1 20 5 3 7 -2 11 -14 11 -14 0 -19 5 -15 15 7 17 -1 20 -11 5z"/>
<path d="M6200 6640 c0 -5 5 -10 10 -10 6 0 10 5 10 10 0 6 -4 10 -10 10 -5 0
-10 -4 -10 -10z"/>
<path d="M5288 6611 c9 -5 11 -18 7 -37 -5 -25 -4 -26 5 -11 7 11 22 18 38 17
44 -3 52 -1 46 15 -5 11 -10 13 -19 5 -10 -8 -15 -8 -20 1 -6 8 -10 7 -16 -2
-8 -11 -11 -11 -20 4 -5 9 -15 17 -22 17 -8 0 -8 -3 1 -9z"/>
<path d="M5960 6610 c0 -5 5 -10 10 -10 6 0 10 5 10 10 0 6 -4 10 -10 10 -5 0
-10 -4 -10 -10z"/>
<path d="M6160 6588 c0 -9 5 -20 10 -23 13 -8 13 5 0 25 -8 13 -10 13 -10 -2z"/>
<path d="M5970 6580 c0 -5 5 -10 11 -10 5 0 7 5 4 10 -3 6 -8 10 -11 10 -2 0
-4 -4 -4 -10z"/>
<path d="M5930 6549 c0 -5 5 -9 11 -9 5 0 7 -5 3 -11 -4 -8 0 -9 15 -4 12 4
21 2 21 -4 0 -6 4 -11 9 -11 13 0 1 40 -13 41 -6 0 -19 2 -28 4 -10 2 -18 -1
-18 -6z"/>
<path d="M5226 6535 c4 -8 11 -15 16 -15 6 0 5 6 -2 15 -7 8 -14 15 -16 15 -2
0 -1 -7 2 -15z"/>
<path d="M5281 6500 c-2 -19 -5 -29 -8 -22 -2 6 -10 12 -16 12 -6 0 -4 -8 6
-17 22 -22 29 -13 24 29 l-4 33 -2 -35z"/>
<path d="M7478 6519 c-19 -11 -24 -29 -8 -29 5 0 14 9 20 20 12 23 12 23 -12
9z"/>
<path d="M5840 6503 c0 -13 5 -23 10 -23 13 0 13 11 0 30 -8 12 -10 11 -10 -7z"/>
<path d="M5135 6458 l-20 -21 21 11 c12 6 24 8 28 4 4 -3 4 1 0 11 -3 9 -7 17
-8 16 0 0 -10 -10 -21 -21z"/>
<path d="M5225 6470 c-3 -5 -1 -10 4 -10 6 0 11 5 11 10 0 6 -2 10 -4 10 -3 0
-8 -4 -11 -10z"/>
<path d="M5237 6445 c-9 -7 -17 -18 -17 -26 1 -11 4 -10 13 2 7 9 21 18 32 21
16 3 17 5 5 10 -9 3 -24 0 -33 -7z"/>
<path d="M5178 6433 c-20 -5 -25 -33 -6 -33 6 0 8 3 5 7 -4 3 1 12 11 19 18
14 17 14 -10 7z"/>
<path d="M5095 6352 c-13 -9 -17 -32 -6 -32 9 0 24 30 18 36 -1 2 -7 0 -12 -4z"/>
<path d="M7630 6279 c0 -5 5 -7 10 -4 6 3 10 8 10 11 0 2 -4 4 -10 4 -5 0 -10
-5 -10 -11z"/>
<path d="M5590 5870 c0 -5 5 -10 10 -10 6 0 10 5 10 10 0 6 -4 10 -10 10 -5 0
-10 -4 -10 -10z"/>
<path d="M5849 5853 c-13 -15 -16 -21 -7 -14 10 7 25 11 33 7 16 -6 19 2 7 22
-6 9 -15 5 -33 -15z"/>
<path d="M5700 5840 c-12 -8 -10 -10 8 -10 13 0 20 4 17 10 -7 12 -6 12 -25 0z"/>
<path d="M5930 5801 c0 -6 4 -12 8 -15 5 -3 9 1 9 9 0 8 -4 15 -9 15 -4 0 -8
-4 -8 -9z"/>
<path d="M5902 5760 c0 -14 2 -19 5 -12 2 6 2 18 0 25 -3 6 -5 1 -5 -13z"/>
<path d="M5883 5706 c0 -18 3 -24 9 -18 7 7 7 16 0 28 -8 14 -9 13 -9 -10z"/>
<path d="M3076 5638 c-11 -17 -13 -33 -7 -58 13 -55 139 -510 155 -560 8 -25
31 -106 51 -180 36 -132 116 -421 236 -846 32 -116 59 -218 59 -227 0 -10 -21
-23 -55 -36 -120 -45 -237 -119 -302 -190 -85 -93 -126 -210 -137 -396 -20
-321 -33 -1203 -19 -1215 5 -4 24 -13 43 -20 19 -8 100 -45 180 -83 335 -160
498 -220 805 -296 227 -56 320 -66 650 -66 368 0 426 5 705 56 394 73 850 197
1205 327 61 22 171 62 245 89 74 28 153 59 176 71 l40 21 18 333 c18 355 23
418 34 417 4 -1 74 -1 155 0 l148 1 15 37 c11 26 14 52 9 95 -8 71 -35 107
-103 139 -61 29 -59 26 -35 52 60 67 112 292 117 507 5 218 -21 479 -54 557
-10 23 -22 78 -26 122 -5 69 -10 83 -30 95 -17 12 -24 13 -27 3 -3 -7 -6 -5
-6 6 -1 9 6 17 14 17 8 0 15 5 15 10 0 7 -7 7 -21 0 -25 -14 -23 -16 -43 40
l-16 45 3 -49 c3 -36 1 -45 -7 -34 -11 15 -17 18 -36 18 -5 0 -10 4 -10 10 0
5 7 7 15 4 8 -4 15 -1 15 5 0 6 -7 11 -16 11 -10 0 -14 6 -11 14 3 8 -1 17 -9
20 -12 5 -14 1 -9 -17 6 -20 5 -21 -8 -4 -8 9 -21 17 -30 17 -11 0 -14 5 -10
17 4 11 3 14 -5 9 -8 -5 -10 -2 -6 8 3 9 10 14 14 11 4 -3 10 1 13 9 6 16 -11
36 -31 36 -12 0 -12 3 -2 15 7 9 18 14 25 11 6 -2 12 2 12 8 0 9 -19 7 -66 -9
-36 -12 -145 -48 -241 -80 -209 -69 -535 -204 -551 -228 -3 -5 -8 -8 -10 -7
-4 2 -59 -21 -69 -28 -2 -2 2 -8 10 -13 11 -8 10 -9 -7 -4 -14 4 -23 2 -23 -4
0 -6 5 -11 10 -11 6 0 10 -15 10 -34 0 -19 6 -37 13 -40 6 -3 3 -5 -8 -5 -35
2 -45 -1 -45 -11 0 -6 12 -8 28 -5 23 5 24 5 9 -5 -14 -9 -16 -15 -7 -26 10
-11 14 -11 27 2 9 8 18 13 21 10 8 -8 -19 -36 -34 -36 -8 0 -14 -5 -14 -10 0
-6 6 -10 13 -9 27 3 37 -2 37 -21 0 -11 -4 -20 -10 -20 -5 0 -10 -5 -10 -10 0
-6 3 -9 8 -9 4 1 16 1 27 -1 l20 -1 -20 -9 c-26 -11 -65 -12 -65 -2 0 5 9 18
21 31 12 12 19 25 16 28 -9 8 -27 -7 -27 -23 0 -8 -5 -14 -11 -14 -6 0 -9 9
-6 20 3 11 1 18 -3 15 -10 -6 -15 1 -24 38 -5 22 -4 27 6 21 7 -4 4 4 -8 17
-21 25 -61 123 -109 269 -38 116 -78 232 -178 515 -47 132 -113 321 -148 420
-81 234 -101 280 -135 302 -27 17 -85 18 -1281 21 l-1252 2 -15 -22z m4294
-1278 c0 -4 -6 -10 -14 -13 -10 -4 -14 0 -13 12 1 18 27 18 27 1z m-1026 -76
c3 -8 2 -12 -4 -9 -6 3 -10 10 -10 16 0 14 7 11 14 -7z m-73 -91 c13 -16 12
-17 -3 -4 -10 7 -18 15 -18 17 0 8 8 3 21 -13z m79 -59 c0 -2 -7 -4 -15 -4 -8
0 -15 4 -15 10 0 5 7 7 15 4 8 -4 15 -8 15 -10z m-11 -280 c-15 -18 -22 -13
-13 10 3 9 10 13 16 10 5 -3 4 -12 -3 -20z m38 -29 c0 -10 -10 -15 -29 -15
-15 0 -28 5 -28 11 0 6 8 8 19 4 11 -3 22 -1 26 5 9 14 12 13 12 -5z m33 -5
c0 -5 -4 -10 -10 -10 -5 0 -10 5 -10 10 0 6 5 10 10 10 6 0 10 -4 10 -10z"/>
<path d="M5896 5515 c-3 -8 -1 -15 4 -15 6 0 10 7 10 15 0 8 -2 15 -4 15 -2 0
-6 -7 -10 -15z"/>
<path d="M5832 5459 c2 -7 10 -15 17 -17 8 -3 12 1 9 9 -2 7 -10 15 -17 17 -8
3 -12 -1 -9 -9z"/>
<path d="M5880 5410 c0 -5 5 -10 10 -10 6 0 10 5 10 10 0 6 -4 10 -10 10 -5 0
-10 -4 -10 -10z"/>
<path d="M5905 5380 c4 -6 11 -8 16 -5 14 9 11 15 -7 15 -8 0 -12 -5 -9 -10z"/>
<path d="M5890 5355 c0 -8 4 -15 10 -15 5 0 7 7 4 15 -4 8 -8 15 -10 15 -2 0
-4 -7 -4 -15z"/>
<path d="M5918 5293 c7 -3 16 -2 19 1 4 3 -2 6 -13 5 -11 0 -14 -3 -6 -6z"/>
<path d="M5900 5276 c0 -9 30 -14 35 -6 4 6 -3 10 -14 10 -12 0 -21 -2 -21 -4z"/>
<path d="M5945 5250 c-3 -5 -1 -10 4 -10 6 0 11 5 11 10 0 6 -2 10 -4 10 -3 0
-8 -4 -11 -10z"/>
<path d="M5950 5154 l-25 -15 25 7 c28 7 35 12 29 18 -2 2 -15 -2 -29 -10z"/>
<path d="M5968 5042 c19 -14 22 -24 17 -48 -6 -26 -5 -27 6 -10 18 30 20 66 3
59 -8 -3 -14 0 -14 6 0 6 -8 11 -17 11 -15 0 -14 -3 5 -18z"/>
<path d="M5953 4980 c-1 -11 2 -18 8 -15 11 7 12 35 1 35 -4 0 -8 -9 -9 -20z"/>
<path d="M6060 4600 c-9 -6 -10 -10 -3 -10 6 0 15 5 18 10 8 12 4 12 -15 0z"/>
<path d="M7196 4595 c4 -8 8 -15 10 -15 2 0 4 7 4 15 0 8 -4 15 -10 15 -5 0
-7 -7 -4 -15z"/>
<path d="M6075 4580 c-3 -5 -1 -10 4 -10 6 0 11 5 11 10 0 6 -2 10 -4 10 -3 0
-8 -4 -11 -10z"/>
<path d="M6190 4220 c0 -5 5 -10 10 -10 6 0 10 5 10 10 0 6 -4 10 -10 10 -5 0
-10 -4 -10 -10z"/>
</g>
</svg>
