<?xml version="1.0" standalone="no"?>
<!DOCTYPE svg PUBLIC "-//W3C//DTD SVG 20010904//EN"
 "http://www.w3.org/TR/2001/REC-SVG-20010904/DTD/svg10.dtd">
<svg version="1.0" xmlns="http://www.w3.org/2000/svg"
 width="1080.000000pt" height="1080.000000pt" viewBox="0 0 1080.000000 1080.000000"
 preserveAspectRatio="xMidYMid meet">

<g transform="translate(0.000000,1080.000000) scale(0.100000,-0.100000)"
fill="#000000" stroke="none">
<path d="M6402 7536 c-62 -30 -87 -73 -76 -132 l6 -35 -35 6 c-20 4 -44 2 -55
-4 -22 -12 -92 -110 -92 -129 0 -6 -12 -17 -27 -24 -36 -17 -53 -52 -53 -113
0 -43 3 -52 23 -60 36 -16 34 -57 -4 -90 l-33 -27 11 -63 c23 -134 74 -190
154 -168 48 13 52 5 49 -101 -1 -79 -10 -104 -53 -151 -11 -11 -33 -44 -49
-73 l-30 -52 -67 6 c-36 3 -95 10 -131 15 -49 6 -71 5 -92 -6 -23 -11 -36 -11
-80 1 -78 20 -85 19 -92 -21 -4 -19 -11 -35 -16 -35 -7 0 -158 85 -169 96 -2
2 9 21 25 42 45 56 46 58 19 76 -24 16 -24 15 -61 -44 -21 -34 -41 -57 -45
-53 -3 4 -15 206 -24 448 -10 242 -21 443 -24 447 -5 5 -1437 -16 -1449 -21
-1 0 -1 -202 0 -448 l3 -448 328 -3 c256 -2 327 -5 323 -15 -2 -6 -10 -29 -17
-49 -12 -37 -13 -38 -61 -38 -33 0 -48 -4 -48 -13 0 -9 -49 -20 -170 -36 -93
-13 -170 -27 -170 -31 0 -6 129 -297 145 -327 1 -1 143 36 316 82 172 47 318
85 322 85 4 0 6 -12 5 -26 -3 -24 3 -29 47 -45 l50 -18 -56 6 c-57 6 -74 -2
-64 -29 3 -8 60 -35 125 -61 110 -43 127 -47 205 -47 l86 0 -3 -27 c-3 -25 0
-27 71 -42 113 -24 102 -40 -16 -25 -54 7 -168 16 -253 20 -168 7 -242 -2
-290 -36 -30 -22 -95 -146 -129 -248 -34 -101 -153 -515 -153 -532 0 -8 -23
-105 -50 -215 -28 -110 -77 -310 -108 -445 l-58 -245 22 -23 c11 -13 33 -30
48 -38 l28 -14 -17 -43 c-21 -53 -58 -114 -91 -149 -18 -20 -36 -28 -59 -28
-57 0 -140 -51 -175 -108 -24 -39 -49 -128 -41 -148 4 -11 62 -13 346 -8 188
3 352 7 363 10 21 4 22 9 19 101 -3 88 -6 105 -39 174 -19 42 -38 94 -42 117
l-6 40 61 18 c82 23 72 29 -15 8 -82 -19 -187 -14 -254 12 -61 24 -130 72
-125 87 2 6 23 100 45 207 51 243 48 233 68 225 13 -5 13 -3 -2 14 -29 32 -2
33 60 1 89 -45 200 -70 316 -70 93 0 99 1 107 23 5 12 46 135 90 272 45 138
99 286 121 330 l38 80 2 -135 c2 -74 5 -277 9 -450 l6 -315 75 -18 c114 -28
411 -27 457 1 8 5 17 108 28 327 9 176 17 320 18 321 1 1 45 4 98 6 l96 4 42
-78 42 -78 55 0 54 0 0 -544 0 -543 -77 -8 c-43 -4 -136 -9 -208 -11 -71 -1
-136 -3 -142 -3 -7 -1 -30 -17 -52 -36 -21 -19 -41 -35 -44 -35 -6 0 -40 89
-51 131 -5 24 -1 29 48 53 30 15 59 32 65 39 6 7 -15 1 -47 -15 -86 -43 -165
-53 -256 -35 -42 9 -102 28 -136 43 l-60 27 -1 126 c-3 236 -16 285 -17 65
l-2 -201 60 -29 c68 -32 69 -36 19 -115 -40 -63 -68 -86 -107 -87 -46 -1 -132
-52 -165 -98 -29 -42 -59 -136 -50 -159 4 -12 60 -13 316 -9 172 3 336 7 365
10 l53 6 -6 39 c-8 44 -3 47 32 19 40 -31 84 -35 137 -12 58 26 86 70 86 135
0 46 0 47 33 47 17 0 140 7 272 15 392 23 358 24 366 -12 13 -67 70 -113 139
-113 112 0 181 109 132 207 -37 71 -108 98 -185 70 -43 -16 -295 -43 -305 -33
-11 12 -28 1081 -17 1088 5 4 26 8 46 8 84 0 93 6 120 78 l24 67 131 5 c88 3
136 9 147 18 27 23 45 89 93 342 122 656 223 1024 322 1179 33 52 33 55 16 69
-37 28 -100 52 -137 52 -102 0 -166 -86 -257 -349 l-47 -134 -11 75 c-24 156
-87 313 -175 430 -23 31 -51 79 -62 107 -11 28 -24 51 -29 51 -5 0 -18 7 -28
17 -17 15 -16 18 33 45 43 25 53 27 67 16 15 -12 16 -11 3 4 -12 16 -9 23 24
59 47 53 71 106 85 193 6 38 13 73 16 77 10 17 -18 90 -47 123 -18 21 -26 37
-19 41 18 11 50 83 50 113 0 74 -103 154 -205 160 -48 2 -71 -2 -113 -22z
m-115 -187 c-21 -5 -48 -14 -60 -20 -21 -10 -21 -9 2 10 15 14 36 21 60 20
l36 -1 -38 -9z m403 -119 c12 -17 24 -50 27 -73 l4 -42 -19 53 c-10 28 -27 61
-37 72 -10 11 -13 20 -7 20 6 0 20 -14 32 -30z m-1346 -117 c13 -237 27 -615
24 -618 -6 -5 -1361 -26 -1366 -20 -4 3 -27 543 -31 733 l-1 22 684 0 684 0 6
-117z m796 94 c0 -2 -11 -30 -25 -63 l-24 -59 -1 40 c0 39 22 85 41 85 5 0 9
-1 9 -3z m123 -189 c9 -5 17 -13 17 -18 0 -6 27 -10 59 -10 33 0 63 -5 67 -11
4 -8 -13 -9 -59 -4 -63 7 -64 7 -71 -19 -3 -14 -18 -33 -31 -42 -46 -30 -112
18 -103 77 6 43 64 56 121 27z m-953 -655 c-1 -20 -34 -47 -103 -83 l-76 -40
-36 43 -36 43 -157 -23 c-86 -12 -158 -23 -159 -23 -1 0 5 20 14 45 l15 45
269 0 c148 0 269 -3 269 -7z m665 -44 l60 -2 -74 -7 c-64 -7 -77 -12 -108 -42
l-34 -33 6 30 c9 39 43 68 69 61 12 -3 48 -6 81 -7z m359 -31 c-41 -133 -190
-316 -274 -339 -58 -15 -166 1 -282 41 l-83 29 75 -5 c90 -7 260 11 299 30 43
23 121 97 191 184 67 83 87 99 74 60z m-709 -178 c-5 -15 0 -21 22 -26 65 -14
133 -35 133 -41 0 -3 -55 -3 -123 1 -115 6 -124 5 -145 -14 -17 -16 -30 -19
-57 -14 -19 3 -35 9 -34 13 0 3 26 27 57 53 50 41 63 47 105 47 44 1 48 -1 42
-19z m890 -730 c-3 -5 -12 -10 -18 -10 -7 0 -6 4 3 10 19 12 23 12 15 0z
m-138 -66 c-3 -3 -12 -4 -19 -1 -8 3 -5 6 6 6 11 1 17 -2 13 -5z m-377 -14 c0
-5 -9 -10 -20 -10 -11 0 -20 5 -20 10 0 6 9 10 20 10 11 0 20 -4 20 -10z m73
3 c-7 -2 -19 -2 -25 0 -7 3 -2 5 12 5 14 0 19 -2 13 -5z m74 1 c-3 -3 -12 -4
-19 -1 -8 3 -5 6 6 6 11 1 17 -2 13 -5z m76 -1 c-7 -2 -19 -2 -25 0 -7 3 -2 5
12 5 14 0 19 -2 13 -5z m80 0 c-7 -2 -19 -2 -25 0 -7 3 -2 5 12 5 14 0 19 -2
13 -5z m-386 -9 c-3 -3 -12 -4 -19 -1 -8 3 -5 6 6 6 11 1 17 -2 13 -5z m-72
-14 c-3 -5 -13 -10 -21 -10 -8 0 -12 5 -9 10 3 6 13 10 21 10 8 0 12 -4 9 -10z
m-75 -30 c-20 -13 -33 -13 -25 0 3 6 14 10 23 10 15 0 15 -2 2 -10z m-689 -53
c-10 -9 -11 -8 -5 6 3 10 9 15 12 12 3 -3 0 -11 -7 -18z m620 -10 c-8 -8 -11
-7 -11 4 0 9 3 19 7 23 4 4 9 2 11 -4 3 -7 -1 -17 -7 -23z m951 -37 l-7 -45
-48 -3 -48 -3 53 53 c29 29 54 51 55 48 2 -3 -1 -25 -5 -50z m-1610 -22 c-7
-7 -12 -8 -12 -2 0 14 12 26 19 19 2 -3 -1 -11 -7 -17z m648 15 c0 -5 -5 -15
-10 -23 -8 -12 -10 -11 -10 8 0 12 5 22 10 22 6 0 10 -3 10 -7z m-676 -78 c-4
-8 -10 -15 -15 -15 -4 0 -6 7 -3 15 4 8 10 15 15 15 4 0 6 -7 3 -15z m663 -27
c-3 -7 -5 -2 -5 12 0 14 2 19 5 13 2 -7 2 -19 0 -25z m-693 -43 c-4 -8 -8 -15
-10 -15 -2 0 -4 7 -4 15 0 8 4 15 10 15 5 0 7 -7 4 -15z m683 -27 c-3 -8 -6
-5 -6 6 -1 11 2 17 5 13 3 -3 4 -12 1 -19z m-716 -61 c-8 -8 -11 -7 -11 4 0
20 13 34 18 19 3 -7 -1 -17 -7 -23z m716 -19 c-3 -7 -5 -2 -5 12 0 14 2 19 5
13 2 -7 2 -19 0 -25z m-727 -37 c0 -6 -4 -13 -10 -16 -5 -3 -10 1 -10 9 0 9 5
16 10 16 6 0 10 -4 10 -9z m730 -32 c0 -11 -4 -17 -10 -14 -5 3 -10 13 -10 21
0 8 5 14 10 14 6 0 10 -9 10 -21z m-759 -62 c-8 -8 -11 -7 -11 4 0 20 13 34
18 19 3 -7 -1 -17 -7 -23z m746 -19 c-3 -8 -6 -5 -6 6 -1 11 2 17 5 13 3 -3 4
-12 1 -19z m-765 -60 c-8 -8 -9 -4 -5 13 4 13 8 18 11 10 2 -7 -1 -18 -6 -23z
m765 -20 c-3 -7 -5 -2 -5 12 0 14 2 19 5 13 2 -7 2 -19 0 -25z m-774 -43 c-3
-9 -8 -14 -10 -11 -3 3 -2 9 2 15 9 16 15 13 8 -4z m774 -27 c-3 -8 -6 -5 -6
6 -1 11 2 17 5 13 3 -3 4 -12 1 -19z m-10 -80 c-3 -8 -6 -5 -6 6 -1 11 2 17 5
13 3 -3 4 -12 1 -19z m0 -80 c-3 -7 -5 -2 -5 12 0 14 2 19 5 13 2 -7 2 -19 0
-25z m0 -80 c-3 -7 -5 -2 -5 12 0 14 2 19 5 13 2 -7 2 -19 0 -25z"/>
<path d="M4705 7170 c-132 -4 -306 -8 -387 -9 l-148 -1 0 -133 c0 -74 3 -208
7 -299 l6 -166 489 -7 c269 -4 491 -5 493 -3 3 2 -1 144 -8 314 l-12 309 -100
1 c-55 0 -208 -3 -340 -6z m415 -20 c0 -6 -53 -10 -137 -10 -76 0 -286 -5
-467 -10 -181 -6 -331 -8 -334 -5 -17 16 46 21 401 25 216 3 425 7 465 8 43 1
72 -2 72 -8z m16 -297 c5 -153 9 -279 9 -280 -1 -1 -213 0 -472 4 l-471 6 -6
101 c-3 56 -8 174 -11 264 l-6 162 138 1 c76 1 239 5 363 8 124 4 275 8 336 9
l111 2 9 -277z"/>
<path d="M4940 7055 l0 -55 90 0 90 0 0 55 0 55 -90 0 -90 0 0 -55z m160 -5
l0 -40 -75 0 -75 0 0 40 0 40 75 0 75 0 0 -40z"/>
<path d="M4590 7091 l-225 -6 -6 -230 c-3 -126 -3 -233 0 -236 3 -4 127 -9
274 -12 l268 -6 -7 147 c-4 81 -9 192 -13 247 l-6 100 -30 1 c-16 0 -131 -2
-255 -5z m280 -74 c0 -35 3 -139 7 -230 l6 -167 -256 0 -257 0 0 230 0 230
250 0 250 0 0 -63z"/>
<path d="M4574 7005 c-11 -16 -14 -36 -11 -54 4 -16 2 -32 -4 -35 -5 -2 -4 -3
3 -2 8 2 13 19 14 44 0 55 16 71 38 41 9 -13 16 -29 16 -36 0 -25 20 -22 54 8
55 48 69 22 24 -43 l-19 -27 48 -3 c40 -3 48 -6 48 -23 0 -17 -8 -20 -52 -23
-51 -3 -53 -2 -53 22 0 14 -3 27 -8 29 -4 3 -7 -9 -7 -25 0 -37 -26 -58 -52
-42 -29 18 -28 46 3 71 26 20 26 22 6 16 -13 -3 -30 -16 -39 -29 -14 -22 -14
-26 1 -49 18 -27 63 -34 83 -14 9 9 19 6 42 -10 33 -24 48 -58 33 -73 -16 -16
-40 -3 -62 34 -21 35 -23 33 -20 -22 0 -19 -6 -44 -14 -55 -16 -20 -16 -20
-36 4 -13 15 -18 31 -14 40 16 39 16 61 0 61 -11 0 -16 -9 -16 -28 0 -52 -54
-74 -66 -28 -8 35 4 66 27 66 10 0 19 7 19 15 0 17 -21 20 -35 6 -6 -6 -22 -4
-42 4 -51 22 -40 74 17 76 19 1 20 3 6 6 -29 8 -66 -17 -66 -44 0 -16 11 -30
34 -43 27 -16 32 -25 28 -45 -2 -14 -1 -36 2 -51 6 -22 11 -25 41 -22 27 2 39
-3 51 -20 28 -41 74 -22 74 32 0 28 1 28 19 12 45 -41 92 6 57 58 -14 23 -14
24 17 33 27 7 32 14 32 38 0 25 -5 31 -35 40 -35 10 -35 11 -22 38 29 60 -7
75 -63 26 -30 -27 -35 -28 -35 -12 0 21 -27 63 -40 63 -5 0 -17 -11 -26 -25z"/>
<path d="M4200 7017 c0 -41 3 -142 7 -225 l6 -152 49 0 48 0 0 103 c0 57 -3
159 -7 225 l-6 122 -49 0 -48 0 0 -73z m90 -77 c0 -80 -4 -130 -10 -130 -5 0
-10 5 -10 10 0 6 -9 10 -20 10 -11 0 -20 -6 -20 -14 0 -30 13 -46 36 -46 23 0
24 -3 24 -60 l0 -60 -35 0 -35 0 0 113 c0 61 -3 156 -7 210 l-6 97 41 0 42 0
0 -130z m-10 -150 c0 -5 -7 -10 -16 -10 -8 0 -12 5 -9 10 3 6 10 10 16 10 5 0
9 -4 9 -10z"/>
<path d="M4958 6973 c-14 -3 -18 -15 -18 -58 0 -61 2 -62 115 -67 l60 -2 0 65
0 64 -70 2 c-38 0 -78 -1 -87 -4z m142 -68 c0 -51 1 -50 -97 -39 l-53 7 0 38
0 39 75 0 75 0 0 -45z"/>
<path d="M4925 6810 c-2 -8 -5 -60 -7 -115 l-2 -100 102 -3 102 -3 0 111 c0
81 -3 110 -12 111 -7 0 -50 4 -96 7 -69 6 -83 5 -87 -8z m168 -27 c4 -2 7 -42
7 -88 l0 -84 -85 -3 -85 -3 0 98 0 99 78 -7 c42 -4 80 -9 85 -12z"/>
<path d="M6159 7004 c-11 -13 -11 -20 2 -42 11 -21 22 -27 49 -27 29 0 36 5
45 28 8 24 6 31 -10 43 -25 19 -69 18 -86 -2z"/>
<path d="M6056 7025 c-18 -13 -18 -15 -3 -15 14 0 16 -6 11 -25 -7 -29 7 -33
30 -9 19 19 20 36 4 52 -15 15 -19 15 -42 -3z"/>
<path d="M3752 6275 c5 -22 2 -25 -21 -23 -23 3 -26 -1 -26 -27 0 -24 7 -33
34 -47 18 -9 40 -26 48 -37 12 -18 25 -21 88 -21 68 0 75 2 94 26 16 21 21 41
21 90 l0 64 -121 0 -121 0 4 -25z m8 -71 c0 -16 -16 -19 -25 -4 -8 13 4 32 16
25 5 -4 9 -13 9 -21z"/>
<path d="M3634 6226 c3 -10 53 -102 109 -205 l103 -186 -1 -105 c-3 -172 -48
-994 -55 -1003 -3 -4 -35 32 -70 80 l-64 88 16 564 c15 517 15 567 0 597 -21
44 -32 43 -32 -3 0 -21 -25 -501 -55 -1068 -30 -566 -55 -1052 -55 -1078 l0
-48 48 3 47 3 10 340 10 339 66 -83 67 -84 -4 -56 c-8 -99 -34 -607 -34 -650
l0 -41 50 0 50 0 0 72 c0 91 47 1728 55 1911 l6 137 -27 0 c-24 0 -26 2 -20
31 3 17 6 35 6 40 0 5 256 10 578 11 l577 3 -580 5 -580 5 -113 200 c-63 110
-111 192 -108 181z m156 -1630 c0 -11 -3 -45 -6 -74 l-7 -52 -63 87 -64 88 0
74 0 74 70 -88 c39 -48 70 -97 70 -109z"/>
<path d="M4490 4431 c0 -5 7 -11 15 -15 8 -3 15 -1 15 3 0 5 -7 11 -15 15 -8
3 -15 1 -15 -3z"/>
<path d="M4560 4401 c0 -5 7 -11 15 -15 8 -3 15 -1 15 3 0 5 -7 11 -15 15 -8
3 -15 1 -15 -3z"/>
<path d="M4630 4380 c0 -6 7 -10 15 -10 8 0 15 2 15 4 0 2 -7 6 -15 10 -8 3
-15 1 -15 -4z"/>
<path d="M4700 4370 c0 -5 7 -10 16 -10 8 0 12 5 9 10 -3 6 -10 10 -16 10 -5
0 -9 -4 -9 -10z"/>
<path d="M4778 4363 c7 -3 16 -2 19 1 4 3 -2 6 -13 5 -11 0 -14 -3 -6 -6z"/>
<path d="M5240 4146 c0 -2 7 -6 15 -10 8 -3 15 -1 15 4 0 6 -7 10 -15 10 -8 0
-15 -2 -15 -4z"/>
<path d="M5320 4120 c19 -13 30 -13 30 0 0 6 -10 10 -22 10 -19 0 -20 -2 -8
-10z"/>
<path d="M5628 4123 c7 -3 16 -2 19 1 4 3 -2 6 -13 5 -11 0 -14 -3 -6 -6z"/>
<path d="M5398 4108 c9 -9 15 -9 24 0 9 9 7 12 -12 12 -19 0 -21 -3 -12 -12z"/>
<path d="M5460 4110 c0 -5 9 -10 20 -10 11 0 20 5 20 10 0 6 -9 10 -20 10 -11
0 -20 -4 -20 -10z"/>
<path d="M5548 4113 c6 -2 18 -2 25 0 6 3 1 5 -13 5 -14 0 -19 -2 -12 -5z"/>
</g>
</svg>
