<svg version="1.0" xmlns="http://www.w3.org/2000/svg"
 width="1080.000000pt" height="1080.000000pt" viewBox="0 0 1080.000000 1080.000000"
 preserveAspectRatio="xMidYMid meet">

<g transform="translate(0.000000,1080.000000) scale(0.100000,-0.100000)"
fill="#000000" stroke="none">
<path d="M4368 7690 c-29 -17 -51 -94 -45 -154 10 -97 66 -173 145 -196 70
-21 287 -24 460 -6 90 10 170 20 178 23 10 3 14 -2 14 -20 0 -42 37 -209 60
-271 12 -32 31 -67 41 -77 11 -11 19 -23 19 -29 0 -13 1 -13 43 5 84 35 143 8
141 -65 -2 -46 -50 -120 -104 -158 -37 -27 -37 -27 -44 -116 -9 -130 -8 -212
3 -200 5 5 13 68 17 141 l7 132 48 41 c60 50 104 135 95 182 -3 18 -7 38 -7
43 -1 6 11 68 25 139 55 262 45 402 -34 477 -43 41 -95 58 -195 64 -38 2 -96
13 -128 25 -86 31 -187 35 -402 16 -172 -15 -195 -15 -240 -2 -58 18 -74 19
-97 6z"/>
<path d="M2390 7659 c-111 -13 -226 -45 -309 -84 -57 -27 -86 -35 -130 -35
-120 0 -219 -61 -246 -152 -20 -67 -19 -211 1 -347 32 -214 93 -523 108 -546
11 -17 26 -25 45 -25 l29 0 7 -105 c4 -58 12 -105 17 -105 6 0 8 75 3 208 l-7
207 -48 45 c-62 57 -90 105 -90 152 0 62 52 84 127 53 43 -18 83 -7 107 29 23
36 45 123 52 208 7 75 8 80 38 96 21 11 55 17 106 16 66 0 89 -5 195 -48 142
-57 196 -67 226 -40 19 17 20 34 3 78 -6 14 -2 14 37 0 24 -8 67 -16 96 -17
42 -2 57 2 74 20 31 30 27 77 -10 130 l-31 43 29 0 c56 0 77 50 46 110 -18 36
-86 77 -157 96 -70 18 -226 25 -318 13z"/>
<path d="M4911 7240 c-35 -8 -100 -64 -88 -76 3 -4 22 7 42 25 20 17 48 31 63
32 61 2 99 -4 141 -22 52 -23 68 -24 51 -5 -25 31 -153 59 -209 46z"/>
<path d="M4420 7223 c-8 -3 -25 -10 -38 -14 -13 -5 -20 -13 -17 -19 4 -7 13
-6 26 1 29 15 32 7 21 -48 -18 -84 -35 -307 -28 -366 12 -93 26 -65 26 51 l0
107 68 1 c76 1 142 19 142 39 0 39 -93 112 -163 129 -27 6 -28 9 -22 49 4 23
10 46 12 51 9 14 121 1 141 -17 21 -19 32 -22 32 -7 0 6 -15 19 -32 30 -32 20
-130 27 -168 13z m170 -239 c0 -12 -48 -29 -57 -21 -2 3 -1 21 3 42 l6 36 24
-22 c13 -12 24 -28 24 -35z"/>
<path d="M2170 7173 c-30 -15 -56 -34 -58 -40 -2 -7 22 1 53 17 80 42 152 42
218 0 28 -17 47 -24 47 -17 0 27 -73 61 -140 65 -56 3 -73 -1 -120 -25z"/>
<path d="M2750 7186 c0 -8 -8 -12 -23 -9 -29 6 -95 -12 -121 -32 -32 -24 -12
-27 35 -5 80 36 117 25 129 -38 l7 -40 -45 -13 c-50 -14 -147 -98 -140 -120 6
-18 94 -40 153 -37 l50 2 3 -64 c8 -156 -42 -322 -111 -373 -135 -100 -355
-82 -537 42 -69 47 -91 40 -25 -8 113 -81 258 -126 378 -118 l77 5 0 -44 c0
-24 5 -44 10 -44 6 0 10 22 10 49 l0 49 53 25 c155 76 198 282 141 680 l-7 48
27 -7 c16 -4 26 -2 26 5 0 6 -11 13 -25 17 -14 3 -30 15 -36 25 -11 22 -29 25
-29 5z m-44 -221 c0 -53 0 -54 -25 -49 -50 11 -61 15 -61 24 0 6 75 80 83 80
1 0 2 -25 3 -55z"/>
<path d="M4677 7079 c-3 -22 -24 -78 -46 -125 -55 -113 -54 -131 12 -159 41
-17 107 -20 107 -5 0 6 -12 10 -27 10 -50 0 -102 20 -108 41 -4 13 10 54 39
117 42 90 59 162 37 162 -4 0 -11 -18 -14 -41z"/>
<path d="M4930 7081 c-60 -13 -119 -50 -147 -92 -32 -48 -26 -57 48 -68 61
-10 147 1 205 25 43 18 124 73 124 85 0 4 -19 16 -42 28 -49 23 -136 33 -188
22z m169 -37 l34 -14 -24 -19 c-28 -21 -74 -45 -106 -55 -22 -7 -23 -5 -23 54
l0 62 43 -7 c23 -4 57 -13 76 -21z m-253 -102 c-8 -7 -56 7 -56 17 0 4 10 21
22 37 l22 28 8 -39 c5 -21 6 -40 4 -43z"/>
<path d="M2140 7043 c-45 -16 -80 -37 -80 -47 0 -16 87 -72 139 -91 66 -23
140 -29 204 -15 41 8 57 16 57 28 0 26 -91 106 -136 120 -41 12 -156 15 -184
5z m114 -40 c-7 -16 -14 -40 -14 -55 0 -16 -6 -28 -12 -28 -21 0 -112 46 -127
63 -12 15 -9 19 20 32 19 8 60 14 91 15 l57 0 -15 -27z m176 -80 c0 -7 -11
-13 -25 -13 -22 0 -25 4 -25 37 l0 36 25 -23 c14 -13 25 -29 25 -37z"/>
<path d="M2515 7030 c-10 -16 4 -69 41 -149 51 -110 47 -122 -50 -136 -33 -4
-45 -10 -38 -17 12 -12 107 6 129 24 22 18 15 62 -23 142 -20 41 -36 91 -37
111 -1 35 -10 45 -22 25z"/>
<path d="M5304 6916 c-24 -18 -13 -31 14 -15 11 7 27 9 36 6 27 -11 18 -44
-20 -75 -20 -17 -31 -32 -25 -36 18 -11 81 53 81 83 0 48 -44 67 -86 37z"/>
<path d="M1816 6884 c-9 -8 -16 -18 -16 -22 0 -16 41 -72 60 -82 34 -18 34 -5
0 28 -16 17 -30 40 -30 51 0 25 9 26 36 6 22 -17 34 -19 34 -5 0 8 -50 40 -64
40 -2 0 -12 -7 -20 -16z"/>
<path d="M4401 6658 c17 -76 70 -170 117 -205 92 -69 262 -88 392 -43 79 27
166 72 211 110 51 42 28 47 -28 6 -124 -89 -286 -137 -401 -118 -139 23 -222
91 -258 211 -22 76 -47 104 -33 39z"/>
<path d="M4590 6653 c-19 -10 -36 -18 -38 -19 -2 -1 3 -16 12 -32 38 -74 203
-83 278 -15 24 22 23 33 -4 33 -13 0 -43 9 -67 20 -62 29 -138 34 -181 13z"/>
<path d="M2350 6650 c0 -17 81 -50 120 -50 40 0 80 9 80 19 0 3 -28 6 -62 6
-41 0 -75 6 -97 18 -40 20 -41 20 -41 7z"/>
<path d="M1820 6245 c0 -3 20 -41 44 -83 24 -42 141 -249 261 -460 120 -211
221 -380 226 -375 7 7 283 800 313 901 4 12 3 22 -2 22 -9 0 -47 -107 -245
-683 -55 -163 -73 -205 -81 -193 -6 8 -121 209 -255 446 -211 372 -261 452
-261 425z"/>
<path d="M7840 6213 c-56 -33 -226 -157 -262 -191 l-28 -26 0 85 c0 92 -14
132 -47 137 -32 5 -67 -48 -135 -205 -53 -121 -61 -148 -65 -219 l-6 -81 -46
-28 c-25 -15 -40 -30 -33 -32 7 -3 32 8 56 23 l43 27 7 84 c5 67 15 104 47
181 56 131 94 205 114 222 15 12 19 12 32 -5 12 -16 13 -39 9 -110 -6 -84 -5
-93 19 -135 55 -95 87 -172 98 -230 12 -64 27 -80 27 -30 0 47 -37 147 -82
224 -40 68 -40 69 -20 85 242 190 362 263 362 219 0 -23 -57 -112 -129 -201
-39 -48 -71 -92 -71 -98 0 -6 37 22 83 62 108 94 176 139 208 139 73 0 31 -72
-107 -183 -102 -83 -127 -107 -107 -107 4 0 62 43 128 96 100 79 124 94 150
92 71 -7 28 -68 -131 -185 -57 -41 -104 -77 -104 -79 0 -17 43 8 136 76 88 66
114 80 139 78 26 -3 30 -7 30 -33 0 -26 -14 -41 -99 -109 -61 -49 -111 -99
-131 -131 -18 -28 -40 -57 -48 -64 -13 -10 -125 -12 -544 -9 -290 2 -538 -1
-551 -5 -12 -5 -27 -18 -34 -30 -17 -31 -22 -370 -13 -965 7 -452 9 -495 25
-515 l18 -22 531 -3 531 -3 0 -129 0 -130 -209 0 -208 0 -13 -75 -13 -75 -378
0 -379 0 0 30 c0 17 -4 30 -10 30 -5 0 -10 -13 -10 -30 l0 -30 -1540 0 c-1020
0 -1540 -3 -1540 -10 0 -7 520 -10 1539 -10 l1538 0 6 -50 c17 -145 111 -231
284 -261 84 -15 303 -7 428 16 50 9 183 38 297 66 291 70 352 80 533 86 141 5
189 1 401 -26 133 -17 273 -31 311 -31 84 0 161 21 191 52 26 29 52 89 52 123
l0 25 300 0 c192 0 300 4 300 10 0 6 -194 11 -547 12 l-547 3 -7 35 c-4 19
-10 52 -13 73 l-7 37 -209 0 -210 0 0 130 0 130 524 0 525 0 28 24 28 24 0
727 0 727 -24 19 c-22 18 -48 19 -687 19 -365 0 -664 3 -664 8 0 28 79 117
162 184 95 76 114 103 106 145 -2 10 -17 23 -35 28 -28 10 -30 12 -17 30 30
41 11 85 -38 85 -25 0 -27 2 -18 26 13 34 13 40 -6 58 -27 27 -68 19 -138 -28
-37 -24 -63 -39 -59 -33 4 7 24 39 45 72 47 73 48 109 3 113 -19 1 -47 -8 -75
-25z m1224 -814 c55 -25 56 -35 56 -558 0 -539 0 -540 -64 -566 -30 -13 -181
-15 -1046 -15 -1081 0 -1063 -1 -1089 48 -8 14 -11 185 -11 532 l0 512 29 29
29 29 1036 0 c753 0 1042 -3 1060 -11z m-1009 -1214 c14 -13 25 -34 25 -46 0
-30 -38 -69 -67 -69 -30 0 -73 42 -73 70 0 27 43 70 70 70 12 0 32 -11 45 -25z
m1041 -646 c-22 -138 -128 -163 -476 -113 -162 23 -229 28 -400 28 -233 1
-264 -4 -620 -89 -308 -73 -351 -80 -535 -80 -177 0 -234 11 -315 63 -54 34
-96 105 -106 180 l-7 52 1233 0 1233 0 -7 -41z"/>
<path d="M1456 5134 c-48 -401 -49 -417 -31 -430 10 -7 195 -113 412 -235 348
-196 393 -223 387 -241 -8 -27 -164 -572 -164 -575 0 -8 -710 253 -820 301
-123 54 -235 117 -330 185 -81 57 -108 70 -80 36 23 -28 191 -135 285 -182 49
-25 144 -68 210 -94 66 -27 120 -52 120 -57 0 -4 -11 -29 -25 -54 -13 -26 -22
-49 -20 -51 3 -2 64 -38 135 -79 72 -41 264 -152 427 -247 164 -95 302 -170
307 -167 5 3 53 83 107 178 l98 171 75 34 c41 19 90 47 108 64 19 16 43 29 54
29 29 0 81 28 106 58 12 14 36 30 55 36 22 7 36 20 42 39 17 47 -8 76 -111
129 l-91 46 110 192 c61 105 107 195 102 199 -5 4 -191 113 -414 241 -223 128
-415 239 -427 247 -24 16 -11 35 -198 -290 -65 -113 -68 -117 -89 -104 -11 7
-97 56 -190 108 -93 51 -171 100 -174 107 -3 8 16 190 42 405 50 427 49 417
38 417 -4 0 -29 -187 -56 -416z m1104 -954 c40 -20 100 -90 100 -117 0 -16 -3
-16 -47 2 -20 9 -40 12 -45 7 -5 -5 46 -30 112 -56 189 -75 243 -120 206 -171
-11 -16 -25 -19 -83 -19 -38 1 -104 9 -147 18 -69 16 -99 16 -84 1 6 -6 121
-30 191 -40 47 -6 48 -7 32 -25 -10 -11 -40 -27 -67 -36 -49 -16 -81 -16 -167
2 -23 5 -32 4 -27 -4 3 -6 21 -13 39 -17 70 -14 70 -15 52 -36 -25 -26 -81
-42 -126 -35 -42 7 -54 -8 -16 -20 21 -7 21 -8 -8 -20 -73 -32 -174 -4 -270
74 -97 79 -96 68 -30 300 l57 201 57 6 c31 4 61 8 66 11 27 11 167 -7 205 -26z"/>
<path d="M3095 5458 c3 -29 9 -219 15 -423 18 -663 22 -765 32 -765 9 0 7 184
-7 570 -2 58 -7 218 -10 355 -3 138 -8 265 -11 283 -8 54 -25 37 -19 -20z"/>
<path d="M3980 5247 c0 -1 -7 -84 -15 -182 -8 -99 -18 -211 -21 -250 -2 -38
-9 -121 -15 -184 -9 -108 -7 -133 8 -118 6 7 61 629 63 705 0 17 -4 32 -10 32
-5 0 -10 -1 -10 -3z"/>
<path d="M5805 5153 c6 -113 12 -222 20 -378 3 -60 8 -144 10 -185 2 -41 7
-131 10 -200 7 -157 14 -220 26 -220 5 0 9 5 9 10 0 9 -19 366 -34 655 -3 50
-8 149 -11 220 -7 155 -12 195 -26 195 -7 0 -8 -34 -4 -97z"/>
</g>
</svg>
